<?xml version="1.0" encoding="UTF-8" standalone="no"?>
<svg
   version="1.1"
   width="30.071091"
   height="33.077744"
   viewBox="0 0 30.071091 33.077744"
   id="svg4"
   sodipodi:docname="cmr.svg"
   inkscape:version="1.1.1 (3bf5ae0d25, 2021-09-20)"
   xmlns:inkscape="http://www.inkscape.org/namespaces/inkscape"
   xmlns:sodipodi="http://sodipodi.sourceforge.net/DTD/sodipodi-0.dtd"
   xmlns:xlink="http://www.w3.org/1999/xlink"
   xmlns="http://www.w3.org/2000/svg"
   xmlns:svg="http://www.w3.org/2000/svg">
  <sodipodi:namedview
     id="namedview72"
     pagecolor="#ffffff"
     bordercolor="#666666"
     borderopacity="1.0"
     inkscape:pageshadow="2"
     inkscape:pageopacity="0.0"
     inkscape:pagecheckerboard="0"
     showgrid="false"
     inkscape:zoom="17.058735"
     inkscape:cx="7.6500395"
     inkscape:cy="16.267325"
     inkscape:window-width="1920"
     inkscape:window-height="1009"
     inkscape:window-x="-8"
     inkscape:window-y="-8"
     inkscape:window-maximized="1"
     inkscape:current-layer="svg4" />
  <defs
     id="defs59">
    <!-- This is the gradient that will actually be used on
     the cards. The colors themselves will be provided by the
     template, but the x values, y values, and offsets will be
     used from the SVG. -->
    <linearGradient
       id="rarity"
       x1="0"
       y1="0"
       x2="1"
       y2="0">
      <stop
         offset="0"
         style="stop-color:rgb(192,55,38);stop-opacity:1"
         id="stop2" />
      <stop
         offset="0.125"
         style="stop-color:rgb(192,55,38);stop-opacity:1"
         id="stop4" />
      <stop
         offset="0.5"
         style="stop-color:rgb(241,142,30);stop-opacity:1"
         id="stop6" />
      <stop
         offset="0.875"
         style="stop-color:rgb(192,55,38);stop-opacity:1"
         id="stop8" />
      <stop
         offset="1"
         style="stop-color:rgb(192,55,38);stop-opacity:1"
         id="stop10" />
    </linearGradient>
    <!-- These gradients are here so that you can visualize
     what the set symbol would like like in that rarity. The
     only gradient that matters in the end is the "rarity"
     gradient. -->
    <linearGradient
       id="mythic"
       x1="0"
       y1="1"
       x2="1"
       y2="0">
      <stop
         offset="0"
         style="stop-color:rgb(192,55,38);stop-opacity:1"
         id="stop9" />
      <stop
         offset="0.125"
         style="stop-color:rgb(192,55,38);stop-opacity:1"
         id="stop11" />
      <stop
         offset="0.5"
         style="stop-color:rgb(241,142,30);stop-opacity:1"
         id="stop13" />
      <stop
         offset="0.875"
         style="stop-color:rgb(192,55,38);stop-opacity:1"
         id="stop15" />
      <stop
         offset="1"
         style="stop-color:rgb(192,55,38);stop-opacity:1"
         id="stop17" />
    </linearGradient>
    <linearGradient
       id="rare"
       x1="0"
       y1="1"
       x2="1"
       y2="0">
      <stop
         offset="0"
         style="stop-color:rgb(146,116,67);stop-opacity:1"
         id="stop20" />
      <stop
         offset="0.125"
         style="stop-color:rgb(146,116,67);stop-opacity:1"
         id="stop22" />
      <stop
         offset="0.5"
         style="stop-color:rgb(211,178,108);stop-opacity:1"
         id="stop24" />
      <stop
         offset="0.875"
         style="stop-color:rgb(146,116,67);stop-opacity:1"
         id="stop26" />
      <stop
         offset="1"
         style="stop-color:rgb(146,116,67);stop-opacity:1"
         id="stop28" />
    </linearGradient>
    <linearGradient
       id="special"
       x1="0"
       y1="1"
       x2="1"
       y2="0">
      <stop
         offset="0"
         style="stop-color:rgb(76, 56, 106);stop-opacity:1"
         id="stop31" />
      <stop
         offset="0.125"
         style="stop-color:rgb(76, 56, 106);stop-opacity:1"
         id="stop33" />
      <stop
         offset="0.5"
         style="stop-color:rgb(201, 173, 221);stop-opacity:1"
         id="stop35" />
      <stop
         offset="0.875"
         style="stop-color:rgb(76, 56, 106);stop-opacity:1"
         id="stop37" />
      <stop
         offset="1"
         style="stop-color:rgb(76, 56, 106);stop-opacity:1"
         id="stop39" />
    </linearGradient>
    <linearGradient
       id="uncommon"
       x1="0"
       y1="1"
       x2="1"
       y2="0">
      <stop
         offset="0"
         style="stop-color:rgb(98,110,119);stop-opacity:1"
         id="stop42" />
      <stop
         offset="0.125"
         style="stop-color:rgb(98,110,119);stop-opacity:1"
         id="stop44" />
      <stop
         offset="0.5"
         style="stop-color:rgb(196,222,238);stop-opacity:1"
         id="stop46" />
      <stop
         offset="0.875"
         style="stop-color:rgb(98,110,119);stop-opacity:1"
         id="stop48" />
      <stop
         offset="1"
         style="stop-color:rgb(98,110,119);stop-opacity:1"
         id="stop50" />
    </linearGradient>
    <linearGradient
       id="common"
       x1="0"
       y1="1"
       x2="1"
       y2="0">
      <stop
         offset="0"
         style="stop-color:rgb(0,0,0);stop-opacity:1"
         id="stop53" />
    </linearGradient>
    <linearGradient
       id="rarity-outline"
       x1="0"
       y1="1"
       x2="0"
       y2="1">
      <stop
         offset="0"
         style="stop-color:rgb(0,0,0);stop-opacity:1"
         id="stop56" />
    </linearGradient>
    <linearGradient
       inkscape:collect="always"
       xlink:href="#rarity-outline"
       id="linearGradient1140"
       x1="1.652231"
       y1="26.436731"
       x2="1.652231"
       y2="26.436731"
       gradientTransform="matrix(1.4243787,0,0,0.70206046,-0.50159638,-0.50428756)"
       gradientUnits="userSpaceOnUse" />
  </defs>
  <path
     id="path1056"
     style="fill:url(#linearGradient1140)"
     d="m 14.898795,0.00157182 c -0.854928,0.01852075 -1.707282,0.20533335 -2.494141,0.56250002 h -0.002 c -0.0037,0.00167 -0.008,2.779e-4 -0.01172,0.00195 l -0.08203,0.037109 -0.0078,0.00781 C 11.219351,1.0760434 10.407049,1.9688923 9.9202786,3.0308686 8.5005171,3.0199839 7.108352,2.4202726 5.8909817,1.5757905 L 5.5609036,1.3453218 5.2659817,1.6207124 C 4.3476211,2.4734037 4.1492603,3.6567354 4.1194974,4.7574312 3.1366386,4.7489527 2.1757748,4.401287 1.2640286,3.8550874 l -0.52148438,-0.3125 -0.2050781,0.5742188 c -0.4481439,1.2525047 -0.71675728,2.6628861 -0.3984375,4.0566406 v 0.00391 0.00391 C 0.38780382,9.2043911 1.0897444,9.9790379 1.8519192,10.540642 v 2.515625 c -0.1034043,0.05361 -0.2059544,0.118875 -0.3027344,0.212891 l -0.023437,0.02344 -0.019531,0.02539 c -0.1717334,0.217553 -0.2899491,0.448094 -0.3398444,0.677724 -0.049895,0.22963 -0.04393,0.425574 -0.046875,0.652344 v 0.0039 3.289062 l 0.00977,0.199219 0.068359,0.109375 c 0.7471849,1.203008 1.6040013,2.410223 2.3945312,3.556641 l 0.2070312,0.300781 0.3476563,-0.105469 C 4.5718081,21.873152 5.15045,21.578233 5.3245755,20.933212 l 0.00781,-0.02344 0.00391,-0.02344 c 0.00779,-0.04563 0.037869,-0.141363 0.048828,-0.292969 0.064796,-0.884465 -0.038096,-1.701035 0.019531,-2.507812 l 0.00195,-0.01758 v -0.01172 h 0.7363281 l 0.019531,1.666015 c 0.012841,5.154089 -0.067756,1.854818 0.037109,5.31836 l 0.00586,0.167969 0.105471,0.130867 c 0.8974828,1.114993 1.8744152,2.171844 2.890625,3.171875 l 0.1132812,0.111328 0.1601563,0.02539 c 0.8241699,0.129763 1.5124339,-0.563852 1.4609379,-1.367188 0.04476,-1.824938 -0.04454,-3.625862 0.03906,-5.392578 0.01068,-0.08933 0.03552,-0.121865 0.09375,-0.164062 0.05957,-0.04317 0.165571,-0.07798 0.275391,-0.07813 0.109821,-1.35e-4 0.213203,0.03385 0.271485,0.07617 0.05696,0.04136 0.08143,0.0736 0.0918,0.164063 0.05761,2.879624 0.01159,5.772206 0.01758,8.671875 v 0.226562 l 0.169922,0.148438 c 0.888113,0.776061 1.868179,1.431552 2.876954,2.003906 l 0.246093,0.140625 0.246094,-0.140625 c 1.010654,-0.571373 1.984235,-1.230909 2.869141,-2.003906 l 0.171875,-0.150391 v -0.228515 c -0.01199,-2.703796 0.0022,-5.411141 -0.0078,-8.121094 10e-4,-0.215263 -2.38e-4,-0.410741 0.02539,-0.533203 0.02582,-0.123357 0.03721,-0.141252 0.101562,-0.177735 l 0.02734,-0.01562 0.02539,-0.01953 c 0.197245,-0.147934 0.620886,0.02109 0.59375,0.289063 l -0.0039,0.03125 0.002,0.0293 c 0.03248,1.73301 -0.02337,3.489398 0.01758,5.257812 -0.03383,0.79501 0.647329,1.465757 1.458984,1.357422 l 0.166016,-0.02148 0.11914,-0.117188 c 1.013378,-0.999232 1.994465,-2.054269 2.886719,-3.177734 l 0.09961,-0.125 0.0078,-0.160156 c 0.121396,-2.359689 -0.01838,-4.699496 0.06445,-6.994141 h 0.728516 c 0.100644,0.87497 -0.108524,1.899657 0.125,3.019531 l 0.0059,0.02539 0.0098,0.02734 c 0.103799,0.319593 0.352506,0.533911 0.564453,0.648438 0.211946,0.114527 0.403857,0.167161 0.527343,0.214844 l 0.367188,0.142578 0.224609,-0.324219 c 0.793049,-1.145181 1.606952,-2.294131 2.355469,-3.498047 l 0.06445,-0.105468 0.0098,-0.123047 c 0.09011,-1.269664 0.03208,-2.525755 0.03125,-3.746094 0.02818,-0.527038 -0.255831,-1.001934 -0.683594,-1.251953 v -2.5625 c 0.78243,-0.5562716 1.474064,-1.3444813 1.712891,-2.3652342 v -0.00195 c 0.323617,-1.3960065 0.03862,-2.803625 -0.40836,-4.0507864 L 29.312857,3.5191499 28.787466,3.849228 C 27.895612,4.4085264 26.93093,4.7506612 25.949576,4.755478 25.922531,3.6546638 25.736983,2.4530924 24.785513,1.6128999 L 24.486685,1.349228 24.162466,1.5816499 C 22.985594,2.4265146 21.612922,2.9630461 20.19567,3.0660249 19.874888,2.4624766 19.564952,1.7908533 18.912466,1.2964936 h -0.002 C 17.99115,0.58950034 16.889067,0.16449955 15.75231,0.03868119 15.469123,0.00733754 15.18377,-0.00460177 14.898795,0.00157182 Z m 0.148437,6.45312498 c 0.310875,0.8346012 0.575908,1.6871703 1.132813,2.4550781 0.494214,0.6929185 1.307733,1.0536275 2.11914,1.0566405 2.725635,0.01804 5.445989,-0.01022 8.16211,0.0098 h 0.02539 l 0.02539,-0.002 c 0.332986,-0.03155 0.649221,0.1828036 0.984375,0.5175776 v 2.414062 c -0.01789,7.91e-4 -0.0347,-0.0035 -0.05273,-0.002 l 0.04688,-0.002 c -3.068782,-0.024 -6.136497,-0.0079 -9.199219,-0.0078 -1.044269,-0.02949 -2.095046,0.538485 -2.521485,1.554687 -0.352835,0.805314 -0.576219,1.638253 -0.753906,2.472656 -0.180521,-0.883023 -0.412617,-1.771619 -0.832031,-2.625 l -0.0039,-0.0078 -0.0039,-0.0059 c -0.475317,-0.896564 -1.445761,-1.42339 -2.441406,-1.388671 -2.8254966,-0.0076 -5.6496715,0.0023 -8.4726565,-0.0059 l -0.00977,-0.01953 -0.328125,0.01758 c -0.088963,0.005 -0.2141255,0.0028 -0.3515624,0.0059 V 10.470202 C 2.932987,10.160133 3.2264792,9.9489194 3.5277172,9.9760624 l 0.025391,0.002 h 0.023437 c 2.7123257,-0.02393 5.4323752,0.0042 8.1582028,-0.0098 0.805834,0.0024 1.625287,-0.341269 2.13086,-1.0292966 v -0.00195 C 14.457397,8.1508397 14.725214,7.291752 15.047248,6.454594 Z" />
</svg>
