<?xml version="1.0" encoding="UTF-8" standalone="no"?>
<svg
   version="1.1"
   width="31.95742"
   height="26.804525"
   viewBox="0 0 31.95742 26.804526"
   id="svg71"
   xmlns="http://www.w3.org/2000/svg"
   xmlns:svg="http://www.w3.org/2000/svg">
  <path
     id="path4"
     style="fill:#000000"
     d="m 9.1285551,0 c 0,0 -1.6855469,0.1836875 -1.6855469,1.9296875 l -6.265625,1.7460937 c 0,1e-7 -1.56593748,0.6013907 -1.08593748,2.6503907 L 5.2750394,25.662109 c 0,0 1.0836563,1.446985 2.3476563,1.083985 l 8.3593743,-2.298828 8.355469,2.298828 c 1.264,0.363 2.347656,-1.083985 2.347656,-1.083985 L 31.864883,6.3261719 c 0.483,-2.048 -1.082031,-2.6503906 -1.082031,-2.6503907 L 24.517227,1.9296875 C 24.517227,0.1836875 22.829727,0 22.829727,0 Z m 0.056641,0.7246094 H 22.775039 c 0.079,0.014 0.322828,0.06675 0.548828,0.21875 0.32,0.215 0.472656,0.5283281 0.472656,0.9863281 v 0.5488281 c 0,0 6.647141,1.8529063 6.744141,1.8789063 0.172,0.08 0.695313,0.3965156 0.695313,1.2285156 0,0.169 -0.02427,0.3563594 -0.07227,0.5683594 -0.008,0.034 -5.050766,18.8630161 -5.134766,19.1660151 -0.223,0.25 -0.87614,0.907469 -1.49414,0.730469 l -8.552735,-2.355469 -8.5585931,2.355469 c -0.616,0.177 -1.2721875,-0.481469 -1.4921875,-0.730469 -0.083,-0.303 -5.12276556,-19.1320151 -5.13476556,-19.1660151 -0.049,-0.212 -0.072266,-0.3993594 -0.072266,-0.5683594 0,-0.832 0.52331246,-1.1485156 0.69531246,-1.2285156 0.097,-0.026 6.7441406,-1.8789063 6.7441406,-1.8789063 V 1.9296875 c 0,-0.458 0.1526562,-0.7713281 0.4726562,-0.9863281 0.2290001,-0.152 0.4688282,-0.20475 0.5488282,-0.21875 z M 9.2652733,1.59375 c 0,0 -0.2832026,0.119375 -0.2832026,0.359375 v 19.998047 c 0,0 2.038e-4,0.402344 0.2832026,0.402344 H 22.716445 c 0,0 0.320313,-0.08234 0.320313,-0.402344 V 1.953125 c 0,0 -0.04031,-0.359375 -0.320313,-0.359375 z M 23.937149,3.4003906 V 21.992188 c -1e-6,-10e-7 -0.159047,1.205078 -1.123047,1.205078 h -5.220703 l 6.988281,1.929687 c 0,0 0.399609,0.19886 0.599609,-0.244141 L 30.323867,5.8085938 c 0,0 0.199797,-0.5997657 -0.283203,-0.7597657 L 23.939102,3.4003906 Z M 8.0191801,3.4414062 1.9137113,5.0898438 c -0.481,0.16 -0.28125,0.7597656 -0.28125,0.7597656 l 5.140625,19.0781246 c 0.203,0.44 0.6035156,0.240235 0.6035156,0.240235 L 14.36293,23.238281 H 9.1441801 c -0.9660002,0 -1.125,-1.205078 -1.125,-1.205078 z m 11.3417969,2.1875 v 0.00195 c 0.446,0 0.705343,0.1072187 0.777343,0.3242187 -0.169,0.12 -0.445078,0.2077188 -0.830078,0.2617188 -0.385,0.054 -0.587468,0.1212187 -0.605469,0.1992187 -0.018,0.078 -0.02734,0.2020938 -0.02734,0.3710938 0,0.542 0.139015,1.5448122 0.416015,3.0078126 0.277,1.4630002 0.456016,2.2913752 0.541016,2.4843752 0.109,0.795 0.282438,1.807156 0.523438,3.035156 0.241,1.228 0.453624,1.90425 0.640624,2.03125 0.186,0.127 0.479954,0.189453 0.876954,0.189453 0.397,0 0.571437,0.211813 0.523437,0.632813 -0.241,0.049 -0.426594,0.07227 -0.558594,0.07227 -0.121,0 -0.363609,-0.02608 -0.724609,-0.08008 -0.361,-0.054 -0.931844,-0.08203 -1.714844,-0.08203 -0.723,0 -1.195968,0.02984 -1.417968,0.08984 -0.222,0.06 -0.347094,0.07869 -0.371094,0.05469 -0.12,-0.12 -0.179688,-0.22264 -0.179688,-0.30664 0,-0.12 0.231313,-0.230985 0.695313,-0.333985 0.464,-0.103 0.743843,-0.239203 0.839843,-0.408203 -0.156999,-1.071 -0.315515,-2.152187 -0.478515,-3.242187 -0.163,-1.09 -0.300203,-1.657078 -0.408203,-1.705079 -0.108,-0.048 -0.986719,0.0443 -2.636719,0.279297 -1.65,0.235 -2.540828,0.437469 -2.673828,0.605469 -0.168,0.59 -0.334906,1.232641 -0.503906,1.931641 -0.169,0.699 -0.253907,1.338015 -0.253907,1.916015 0,0.169 0.01311,0.346203 0.03711,0.533204 0.024,0.187 0.155484,0.279296 0.396484,0.279296 0.277,-0.024 0.555031,-0.04827 0.832031,-0.07227 0.121,0.036 0.179688,0.114375 0.179688,0.234375 v 0.289062 l -3.4492187,0.234375 c -0.036,-0.277 -0.05469,-0.451437 -0.05469,-0.523437 0,-0.06 0.03361,-0.08427 0.09961,-0.07227 0.066,0.012 0.1537187,0.03069 0.2617187,0.05469 0.12,0 0.239515,-0.04295 0.353515,-0.126954 0.114,-0.084 0.329438,-0.725828 0.648438,-1.923828 0.231244,-0.870624 0.466044,-1.740703 0.703125,-2.609375 -0.01717,0.09183 -0.02734,0.146485 -0.02734,0.158203 l 1.771485,-6.5917966 c -0.35,-0.12 -0.697875,-0.2469062 -1.046876,-0.3789062 -1.71,-0.084 -2.5664057,-0.3312344 -2.5664057,-0.7402344 0.9639997,0.06 1.9695777,0.1159219 3.0175777,0.1699219 1.048,0.054 1.805391,0.082031 2.275391,0.082031 0.711,0 1.529031,-0.055063 2.457031,-0.1640625 0.928,-0.109 1.48211,-0.1621094 1.66211,-0.1621094 z M 16.109023,6.53125 c -0.277,0 -0.579296,0.00181 -0.904296,0.00781 -0.325,0.006 -0.630922,0.015344 -0.919922,0.027344 -0.289,1.072 -0.574422,2.1447966 -0.857422,3.2167968 -0.283,1.0720002 -0.41825,1.6130002 -0.40625,1.6250002 0.036,0.037 0.229125,0.05469 0.578125,0.05469 0.59,0 1.271828,-0.02608 2.048828,-0.08008 0.777,-0.054 1.485047,-0.117453 2.123047,-0.189453 0,-0.602 -0.163281,-1.5031712 -0.488281,-2.7011717 -0.325,-1.198 -0.518125,-1.8249062 -0.578125,-1.8789063 -0.06,-0.054 -0.149532,-0.080078 -0.269532,-0.080078 l -0.002,-0.00195 z m -4.261718,6.607422 c 0.002,10e-4 0,0.0039 0,0.0059 l -0.01758,0.05859 c -0.0013,0.0063 -0.0027,0.01402 -0.0039,0.02148 -0.0025,0.0091 -0.0053,0.0182 -0.0078,0.02734 l 0.0059,-0.0293 0.0059,-0.01953 c 0.002,-0.0097 0.0028,-0.01864 0.0059,-0.0332 0.004,-0.019 0.0087,-0.03225 0.01172,-0.03125 z" />
  <defs
     id="defs45">
    <!-- This is the gradient that will actually be used on
     the cards. The colors themselves will be provided by the
     template, but the x values, y values, and offsets will be
     used from the SVG. -->
    <linearGradient
       id="rarity"
       x1="0.68063772"
       y1="30.086477"
       x2="29.948196"
       y2="0.81891942"
       gradientTransform="matrix(1.0918925,0,0,0.91584104,-0.74253866,-0.75)"
       gradientUnits="userSpaceOnUse">
      <stop
         offset="0"
         style="stop-color:rgb(192,55,38);stop-opacity:1"
         id="stop2" />
      <stop
         offset="0.125"
         style="stop-color:rgb(192,55,38);stop-opacity:1"
         id="stop4" />
      <stop
         offset="0.5"
         style="stop-color:rgb(241,142,30);stop-opacity:1"
         id="stop6" />
      <stop
         offset="0.875"
         style="stop-color:rgb(192,55,38);stop-opacity:1"
         id="stop8" />
      <stop
         offset="1"
         style="stop-color:rgb(192,55,38);stop-opacity:1"
         id="stop10" />
    </linearGradient>
    <!-- These gradients are here so that you can visualize
     what the set symbol would like like in that rarity. The
     only gradient that matters in the end is the "rarity"
     gradient. -->
    <linearGradient
       id="mythic"
       x1="0"
       y1="1"
       x2="1"
       y2="0">
      <stop
         offset="0"
         style="stop-color:rgb(192,55,38);stop-opacity:1"
         id="stop13" />
      <stop
         offset="0.125"
         style="stop-color:rgb(192,55,38);stop-opacity:1"
         id="stop15" />
      <stop
         offset="0.5"
         style="stop-color:rgb(241,142,30);stop-opacity:1"
         id="stop17" />
      <stop
         offset="0.875"
         style="stop-color:rgb(192,55,38);stop-opacity:1"
         id="stop19" />
      <stop
         offset="1"
         style="stop-color:rgb(192,55,38);stop-opacity:1"
         id="stop21" />
    </linearGradient>
    <linearGradient
       id="rare"
       x1="0"
       y1="1"
       x2="1"
       y2="0">
      <stop
         offset="0"
         style="stop-color:rgb(146,116,67);stop-opacity:1"
         id="stop24" />
      <stop
         offset="0.125"
         style="stop-color:rgb(146,116,67);stop-opacity:1"
         id="stop26" />
      <stop
         offset="0.5"
         style="stop-color:rgb(211,178,108);stop-opacity:1"
         id="stop28" />
      <stop
         offset="0.875"
         style="stop-color:rgb(146,116,67);stop-opacity:1"
         id="stop30" />
      <stop
         offset="1"
         style="stop-color:rgb(146,116,67);stop-opacity:1"
         id="stop32" />
    </linearGradient>
    <linearGradient
       id="special"
       x1="0"
       y1="1"
       x2="1"
       y2="0">
      <stop
         offset="0"
         style="stop-color:rgb(76, 56, 106);stop-opacity:1"
         id="stop35" />
      <stop
         offset="0.125"
         style="stop-color:rgb(76, 56, 106);stop-opacity:1"
         id="stop37" />
      <stop
         offset="0.5"
         style="stop-color:rgb(201, 173, 221);stop-opacity:1"
         id="stop39" />
      <stop
         offset="0.875"
         style="stop-color:rgb(76, 56, 106);stop-opacity:1"
         id="stop41" />
      <stop
         offset="1"
         style="stop-color:rgb(76, 56, 106);stop-opacity:1"
         id="stop43" />
    </linearGradient>
    <linearGradient
       id="uncommon"
       x1="0"
       y1="1"
       x2="1"
       y2="0">
      <stop
         offset="0"
         style="stop-color:rgb(98,110,119);stop-opacity:1"
         id="stop46" />
      <stop
         offset="0.125"
         style="stop-color:rgb(98,110,119);stop-opacity:1"
         id="stop48" />
      <stop
         offset="0.5"
         style="stop-color:rgb(196,222,238);stop-opacity:1"
         id="stop50" />
      <stop
         offset="0.875"
         style="stop-color:rgb(98,110,119);stop-opacity:1"
         id="stop52" />
      <stop
         offset="1"
         style="stop-color:rgb(98,110,119);stop-opacity:1"
         id="stop54" />
    </linearGradient>
    <linearGradient
       id="common"
       x1="0"
       y1="1"
       x2="1"
       y2="0">
      <stop
         offset="0"
         style="stop-color:rgb(0,0,0);stop-opacity:1"
         id="stop57" />
    </linearGradient>
    <linearGradient
       id="rarity-outline"
       x1="0"
       y1="27.268721"
       x2="27.268721"
       y2="0"
       gradientTransform="scale(0.94847856,1.0543201)"
       gradientUnits="userSpaceOnUse">
      <stop
         offset="0"
         style="stop-color:rgb(0,0,0);stop-opacity:1"
         id="stop60" />
    </linearGradient>
    <linearGradient
       id="rarity-7"
       x1="0.93509442"
       y1="26.325495"
       x2="26.399397"
       y2="0.86119092"
       gradientTransform="scale(0.94620114,1.0568577)"
       gradientUnits="userSpaceOnUse">
      <stop
         offset="0"
         style="stop-color:rgb(192,55,38);stop-opacity:1"
         id="stop2-1" />
      <stop
         offset="0.125"
         style="stop-color:rgb(192,55,38);stop-opacity:1"
         id="stop4-2" />
      <stop
         offset="0.5"
         style="stop-color:rgb(241,142,30);stop-opacity:1"
         id="stop6-6" />
      <stop
         offset="0.875"
         style="stop-color:rgb(192,55,38);stop-opacity:1"
         id="stop8-0" />
      <stop
         offset="1"
         style="stop-color:rgb(192,55,38);stop-opacity:1"
         id="stop10-1" />
    </linearGradient>
  </defs>
</svg>
