<?xml version="1.0" encoding="UTF-8" standalone="no"?>
<svg
   version="1.1"
   width="31.865"
   height="25.313"
   viewBox="0 0 31.865 25.313"
   id="svg4"
   sodipodi:docname="ddq.svg"
   inkscape:version="1.1.1 (3bf5ae0d25, 2021-09-20)"
   xmlns:inkscape="http://www.inkscape.org/namespaces/inkscape"
   xmlns:sodipodi="http://sodipodi.sourceforge.net/DTD/sodipodi-0.dtd"
   xmlns="http://www.w3.org/2000/svg"
   xmlns:svg="http://www.w3.org/2000/svg">
  <sodipodi:namedview
     id="namedview66"
     pagecolor="#ffffff"
     bordercolor="#666666"
     borderopacity="1.0"
     inkscape:pageshadow="2"
     inkscape:pageopacity="0.0"
     inkscape:pagecheckerboard="0"
     showgrid="false"
     inkscape:zoom="30.119753"
     inkscape:cx="16.351396"
     inkscape:cy="12.533303"
     inkscape:window-width="1920"
     inkscape:window-height="1009"
     inkscape:window-x="-8"
     inkscape:window-y="-8"
     inkscape:window-maximized="1"
     inkscape:current-layer="svg4" />
  <defs
     id="defs59">
    <!-- This is the gradient that will actually be used on
     the cards. The colors themselves will be provided by the
     template, but the x values, y values, and offsets will be
     used from the SVG. -->
    <linearGradient
       id="rarity"
       x1="0.84950259"
       y1="1.2863327"
       x2="24.990083"
       y2="29.687015"
       gradientTransform="matrix(1.1219801,0,0,0.8912814,-0.953125,-1.1464844)"
       gradientUnits="userSpaceOnUse">
      <stop
         offset="0"
         style="stop-color:rgb(192,55,38);stop-opacity:1"
         id="stop2" />
      <stop
         offset="0.125"
         style="stop-color:rgb(192,55,38);stop-opacity:1"
         id="stop4" />
      <stop
         offset="0.5"
         style="stop-color:rgb(241,142,30);stop-opacity:1"
         id="stop6" />
      <stop
         offset="0.875"
         style="stop-color:rgb(192,55,38);stop-opacity:1"
         id="stop8" />
      <stop
         offset="1"
         style="stop-color:rgb(192,55,38);stop-opacity:1"
         id="stop10" />
    </linearGradient>
    <!-- These gradients are here so that you can visualize
     what the set symbol would like like in that rarity. The
     only gradient that matters in the end is the "rarity"
     gradient. -->
    <linearGradient
       id="mythic"
       x1="0"
       y1="1"
       x2="1"
       y2="0">
      <stop
         offset="0"
         style="stop-color:rgb(192,55,38);stop-opacity:1"
         id="stop9" />
      <stop
         offset="0.125"
         style="stop-color:rgb(192,55,38);stop-opacity:1"
         id="stop11" />
      <stop
         offset="0.5"
         style="stop-color:rgb(241,142,30);stop-opacity:1"
         id="stop13" />
      <stop
         offset="0.875"
         style="stop-color:rgb(192,55,38);stop-opacity:1"
         id="stop15" />
      <stop
         offset="1"
         style="stop-color:rgb(192,55,38);stop-opacity:1"
         id="stop17" />
    </linearGradient>
    <linearGradient
       id="rare"
       x1="0"
       y1="1"
       x2="1"
       y2="0">
      <stop
         offset="0"
         style="stop-color:rgb(146,116,67);stop-opacity:1"
         id="stop20" />
      <stop
         offset="0.125"
         style="stop-color:rgb(146,116,67);stop-opacity:1"
         id="stop22" />
      <stop
         offset="0.5"
         style="stop-color:rgb(211,178,108);stop-opacity:1"
         id="stop24" />
      <stop
         offset="0.875"
         style="stop-color:rgb(146,116,67);stop-opacity:1"
         id="stop26" />
      <stop
         offset="1"
         style="stop-color:rgb(146,116,67);stop-opacity:1"
         id="stop28" />
    </linearGradient>
    <linearGradient
       id="special"
       x1="0"
       y1="1"
       x2="1"
       y2="0">
      <stop
         offset="0"
         style="stop-color:rgb(76, 56, 106);stop-opacity:1"
         id="stop31" />
      <stop
         offset="0.125"
         style="stop-color:rgb(76, 56, 106);stop-opacity:1"
         id="stop33" />
      <stop
         offset="0.5"
         style="stop-color:rgb(201, 173, 221);stop-opacity:1"
         id="stop35" />
      <stop
         offset="0.875"
         style="stop-color:rgb(76, 56, 106);stop-opacity:1"
         id="stop37" />
      <stop
         offset="1"
         style="stop-color:rgb(76, 56, 106);stop-opacity:1"
         id="stop39" />
    </linearGradient>
    <linearGradient
       id="uncommon"
       x1="0"
       y1="1"
       x2="1"
       y2="0">
      <stop
         offset="0"
         style="stop-color:rgb(98,110,119);stop-opacity:1"
         id="stop42" />
      <stop
         offset="0.125"
         style="stop-color:rgb(98,110,119);stop-opacity:1"
         id="stop44" />
      <stop
         offset="0.5"
         style="stop-color:rgb(196,222,238);stop-opacity:1"
         id="stop46" />
      <stop
         offset="0.875"
         style="stop-color:rgb(98,110,119);stop-opacity:1"
         id="stop48" />
      <stop
         offset="1"
         style="stop-color:rgb(98,110,119);stop-opacity:1"
         id="stop50" />
    </linearGradient>
    <linearGradient
       id="common"
       x1="0"
       y1="1"
       x2="1"
       y2="0">
      <stop
         offset="0"
         style="stop-color:rgb(0,0,0);stop-opacity:1"
         id="stop53" />
    </linearGradient>
    <linearGradient
       id="rarity-outline"
       x1="0"
       y1="1"
       x2="0"
       y2="1">
      <stop
         offset="0"
         style="stop-color:rgb(0,0,0);stop-opacity:1"
         id="stop56" />
    </linearGradient>
  </defs>
  <path
     fill="url(#rarity)"
     d="m 20.536,0 c 2.231,0.374 4.433,0.997 6.485,1.959 1.912,0.909 3.772,2.17 4.844,4.044 -0.976,-0.287 -2.013,-0.415 -3.026,-0.282 -0.792,0.111 -1.606,0.531 -1.935,1.297 -0.091,0.247 -0.264,0.535 -0.127,0.795 0.592,1.3129996 1.004,2.716 1.137,4.152 0.365,4.197 -1.498,8.527 -4.822,11.123 -1.267,0.955 -2.736,1.643 -4.28,2.006 -0.687,0.127 -1.386,0.201 -2.085,0.219 0.018,-1.543 0.003,-3.086 0.008,-4.629 2.042,0.011 4.027,-1.046 5.228,-2.685 0.583,-0.764 0.947,-1.663 1.274,-2.559 0.297,-0.811 0.523,-1.649 0.651,-2.503 -0.778,0.444 -1.505,0.975 -2.264,1.453 -1.569,1.018 -3.126,2.055 -4.703,3.063 0.463,-3.26 0.582,-6.573 0.311,-9.855 -0.131,-1.449 -0.349,-2.893 -0.608,-4.322 1.223,2.831 2.366,5.7049996 3.571,8.548 1.152,-0.851 1.836,-2.2180004 2.01,-3.623 C 22.425,6.669 22.193,5.111 21.826,3.62 21.509,2.378 21.075,1.166 20.537,0.002 Z M 0.273,0.56 C 0.192,3.414 0.097,6.267 0,9.1209996 1.37,7.668 2.734,6.208 4.106,4.757 4.232,4.666 4.42,4.705 4.567,4.726 c 0.421,0.303 0.826,0.63 1.24,0.942 -2.024,2.156 -3.119,5.114 -3.12,8.059 0.011,2.32 0.686,4.641 1.981,6.571 1.068,1.619 2.56,2.959 4.296,3.825 1.458,0.734 3.088,1.123 4.721,1.121 0.004,-1.521 10e-4,-3.042 0.002,-4.562 C 11.418,20.695 9.24,19.385 8.089,17.447 7.221,16.021 6.869,14.283 7.13,12.633 7.366,11.02 8.167,9.4859996 9.392,8.404 10.094,8.9209996 10.772,9.4689996 11.479,9.9799996 11.475,7.896 11.476,5.813 11.478,3.731 10.235,2.676 8.992,1.619 7.75,0.562 5.257,0.553 2.765,0.559 0.272,0.559 Z"
     id="path63"
     style="fill:url(#rarity)" />
</svg>
