<?xml version="1.0" encoding="UTF-8" standalone="no"?>
<!-- Generated by IcoMoon.io -->

<svg
   version="1.1"
   width="26.879"
   height="29.32"
   viewBox="0 0 26.879 29.32"
   id="svg6"
   xmlns="http://www.w3.org/2000/svg"
   xmlns:svg="http://www.w3.org/2000/svg"
   xmlns:rdf="http://www.w3.org/1999/02/22-rdf-syntax-ns#"
   xmlns:cc="http://creativecommons.org/ns#"
   xmlns:dc="http://purl.org/dc/elements/1.1/">
  <defs
     id="defs10" />
  <title
     id="title2">mic</title>
  <path
     fill="#444444"
     d="M 0,5.438 C 2.622,3.495 5.147,1.337 8.152,0 7.887,1.211 8.8,2.245 9.814,2.743 c 1.164,0.574 2.452,0.96 3.752,1.025 1.392,-0.186 2.811,-0.551 3.999,-1.332 0.802,-0.522 1.364,-1.455 1.159,-2.436 3.008,1.34 5.535,3.493 8.155,5.444 -0.126,0.548 -0.252,1.096 -0.38,1.642 -0.844,0.275 -1.702,0.593 -2.386,1.175 -0.511,1.196 -0.496,2.557 -0.401,3.834 0.042,1.036 0.802,1.812 1.468,2.525 -1.159,3.417 -2.863,6.65 -5.003,9.555 -1.686,2.334 -4.203,3.889 -6.744,5.145 C 10.9,28.056 8.385,26.512 6.702,24.178 4.562,21.273 2.855,18.039 1.699,14.618 2.368,13.907 3.128,13.129 3.167,12.09 3.261,10.816 3.272,9.457 2.766,8.262 2.082,7.675 1.216,7.363 0.372,7.082 0.246,6.534 0.123,5.989 0,5.441 Z M 18.064,5.794 C 15.497,11.833 10.974,16.812 6.099,21.105 12.55,18.54 18.565,14.188 21.984,8.036 22.086,6.544 22.06,5.041 22.115,3.544 20.762,4.294 19.412,5.039 18.064,5.794 Z M 12.235,4.52 C 10.541,7.95 8.446,11.17 6.094,14.185 10.224,11.429 13.947,7.999 16.756,3.888 15.311,4.376 13.769,4.916 12.235,4.52 Z m 3.619,17.27 c 3.071,-1.912 5.924,-4.214 8.294,-6.957 -1.07,-1.046 -1.484,-2.525 -1.382,-3.994 -1.815,3.928 -4.078,7.672 -6.912,10.95 z"
     id="path4" />
  <metadata
     id="metadata827">
    <rdf:RDF>
      <cc:Work
         rdf:about="">
        <dc:title>mic</dc:title>
      </cc:Work>
    </rdf:RDF>
  </metadata>
</svg>
