<?xml version="1.0" encoding="UTF-8" standalone="no"?>
<svg
   version="1.1"
   width="35.77734"
   height="28.064457"
   viewBox="0 0 35.77734 28.064457"
   id="svg4"
   xmlns="http://www.w3.org/2000/svg"
   xmlns:svg="http://www.w3.org/2000/svg">
  <defs
     id="defs59">
    <!-- This is the gradient that will actually be used on
     the cards. The colors themselves will be provided by the
     template, but the x values, y values, and offsets will be
     used from the SVG. -->
    <linearGradient
       id="rarity"
       x1="0"
       y1="0"
       x2="29.389612"
       y2="29.389612"
       gradientTransform="scale(1.0472184,0.95491062)"
       gradientUnits="userSpaceOnUse">
      <stop
         offset="0"
         style="stop-color:rgb(192,55,38);stop-opacity:1"
         id="stop2" />
      <stop
         offset="0.125"
         style="stop-color:rgb(192,55,38);stop-opacity:1"
         id="stop4" />
      <stop
         offset="0.5"
         style="stop-color:rgb(241,142,30);stop-opacity:1"
         id="stop6" />
      <stop
         offset="0.875"
         style="stop-color:rgb(192,55,38);stop-opacity:1"
         id="stop8" />
      <stop
         offset="1"
         style="stop-color:rgb(192,55,38);stop-opacity:1"
         id="stop10" />
    </linearGradient>
    <!-- These gradients are here so that you can visualize
     what the set symbol would like like in that rarity. The
     only gradient that matters in the end is the "rarity"
     gradient. -->
    <linearGradient
       id="mythic"
       x1="0"
       y1="1"
       x2="1"
       y2="0">
      <stop
         offset="0"
         style="stop-color:rgb(192,55,38);stop-opacity:1"
         id="stop9" />
      <stop
         offset="0.125"
         style="stop-color:rgb(192,55,38);stop-opacity:1"
         id="stop11" />
      <stop
         offset="0.5"
         style="stop-color:rgb(241,142,30);stop-opacity:1"
         id="stop13" />
      <stop
         offset="0.875"
         style="stop-color:rgb(192,55,38);stop-opacity:1"
         id="stop15" />
      <stop
         offset="1"
         style="stop-color:rgb(192,55,38);stop-opacity:1"
         id="stop17" />
    </linearGradient>
    <linearGradient
       id="rare"
       x1="0"
       y1="1"
       x2="1"
       y2="0">
      <stop
         offset="0"
         style="stop-color:rgb(146,116,67);stop-opacity:1"
         id="stop20" />
      <stop
         offset="0.125"
         style="stop-color:rgb(146,116,67);stop-opacity:1"
         id="stop22" />
      <stop
         offset="0.5"
         style="stop-color:rgb(211,178,108);stop-opacity:1"
         id="stop24" />
      <stop
         offset="0.875"
         style="stop-color:rgb(146,116,67);stop-opacity:1"
         id="stop26" />
      <stop
         offset="1"
         style="stop-color:rgb(146,116,67);stop-opacity:1"
         id="stop28" />
    </linearGradient>
    <linearGradient
       id="special"
       x1="0"
       y1="1"
       x2="1"
       y2="0">
      <stop
         offset="0"
         style="stop-color:rgb(76, 56, 106);stop-opacity:1"
         id="stop31" />
      <stop
         offset="0.125"
         style="stop-color:rgb(76, 56, 106);stop-opacity:1"
         id="stop33" />
      <stop
         offset="0.5"
         style="stop-color:rgb(201, 173, 221);stop-opacity:1"
         id="stop35" />
      <stop
         offset="0.875"
         style="stop-color:rgb(76, 56, 106);stop-opacity:1"
         id="stop37" />
      <stop
         offset="1"
         style="stop-color:rgb(76, 56, 106);stop-opacity:1"
         id="stop39" />
    </linearGradient>
    <linearGradient
       id="uncommon"
       x1="0"
       y1="1"
       x2="1"
       y2="0">
      <stop
         offset="0"
         style="stop-color:rgb(98,110,119);stop-opacity:1"
         id="stop42" />
      <stop
         offset="0.125"
         style="stop-color:rgb(98,110,119);stop-opacity:1"
         id="stop44" />
      <stop
         offset="0.5"
         style="stop-color:rgb(196,222,238);stop-opacity:1"
         id="stop46" />
      <stop
         offset="0.875"
         style="stop-color:rgb(98,110,119);stop-opacity:1"
         id="stop48" />
      <stop
         offset="1"
         style="stop-color:rgb(98,110,119);stop-opacity:1"
         id="stop50" />
    </linearGradient>
    <linearGradient
       id="common"
       x1="0"
       y1="1"
       x2="1"
       y2="0">
      <stop
         offset="0"
         style="stop-color:rgb(0,0,0);stop-opacity:1"
         id="stop53" />
    </linearGradient>
    <linearGradient
       id="rarity-outline"
       x1="0"
       y1="1"
       x2="0"
       y2="1">
      <stop
         offset="0"
         style="stop-color:rgb(0,0,0);stop-opacity:1"
         id="stop56" />
    </linearGradient>
  </defs>
  <path
     id="path61"
     style="fill:url(#rarity)"
     d="M 17.800781,0 C 10.648372,0 4.8242186,5.8241519 4.8242188,12.976562 c 0,0.13334 0.00544,0.264853 0.00977,0.396485 l -0.011719,-0.002 -0.1386718,0.01953 C 3.1538461,13.616706 2.0566926,14.069282 0.74609375,15.658203 L 0,16.564453 1.1777344,16.873047 c 1.2871248,0.343075 2.0033103,0.813899 2.2402344,1.179687 0.4290647,0.662597 1.1403648,0.930409 1.8339843,1.03125 -0.1860202,0.201725 -0.4503373,0.331815 -0.5664062,0.591797 l 0.017578,-0.03711 C 4.4952525,20.04499 3.3663636,20.96791 2.4824219,21.314453 l -1.61718752,0.634766 1.57031252,0.742187 c 0.658389,0.311167 1.4204109,0.343362 2.1835937,0.222656 -0.219643,0.257226 -0.4665225,0.512654 -0.9082031,0.785157 l -1.46875,0.90625 1.6660156,0.455078 c 0.6631956,0.181519 1.309418,0.270465 1.9296875,0.263672 0,0 0.3571469,0.294045 0.5585938,0.404297 0.5159499,0.28238 1.6425781,0.644531 1.6425781,0.644531 1.013815,0.397023 1.9738195,0.388053 2.7675785,0.126953 0.793758,-0.261101 1.41481,-0.746008 1.90039,-1.230469 0.299371,-0.298911 0.402982,-0.365561 0.609375,-0.550781 0.04466,0.363309 -0.03365,0.795405 0.09375,1.115234 0.300523,0.754417 0.881454,1.345887 1.617188,1.701172 l 0.0332,0.07227 0.01172,-0.0332 1.052734,0.490234 v -1.175781 c 0,-0.318989 0.191492,-0.411952 0.292969,-0.583984 0.657437,0.581306 1.401137,1.034822 2.279297,1.1875 1.214498,0.211154 2.571624,0.01037 4.072265,-0.533204 l 2.671875,-0.96875 -2.802734,-0.476562 c -0.2137,-0.03635 -0.384455,-0.161366 -0.550781,-0.292969 5.052714,-1.776008 8.689453,-6.593979 8.689453,-12.244141 C 30.777344,5.8241518 24.953191,0 17.800781,0 Z m 0,0.75 c 6.746241,0 12.226563,5.4803204 12.226563,12.226562 0,5.681033 -3.886715,10.461408 -9.142578,11.830079 -0.248539,0.203709 -0.322843,0.271739 -0.31836,0.277343 0.528,0.648 1.177266,1.038922 1.947266,1.169922 -2.838,1.028 -4.91728,0.666016 -6.238281,-1.083984 -0.6,0.365 -0.900391,0.93775 -0.900391,1.71875 -1.209,-0.563 -1.692219,-1.775672 -1.449219,-3.638672 0,0 -0.447047,0.189281 -1.748047,1.488281 -0.868,0.866 -2.156234,1.178547 -3.865234,0.935547 1.1938448,-0.5486 1.5400194,-1.199722 1.914062,-2.191406 0.152318,-0.403831 0.429513,-0.951297 0.691407,-1.439453 -1.3280004,0.283 -0.796875,0.480422 -2.5468752,1.732422 -1.1670001,0.834 -2.5886251,1.0215 -4.265625,0.5625 1.2139999,-0.749 1.7941406,-1.618329 1.7441406,-2.611329 -0.95,0.609001 -2.25375,0.68411 -3.09375,0.28711 1.0256321,-0.453335 2.229595,-1.279416 2.6152344,-2.033203 0.371,-0.831 1.2058593,-1.262828 2.5058593,-1.298828 -1.7928766,-0.621252 -2.9610796,0.175438 -3.828125,-1.03711 -0.41,-0.633 -1.3046406,-1.132047 -2.6816406,-1.498047 l -0.041016,-0.0098 c 0.782,-0.959 1.7222187,-1.627906 2.8242187,-2.003907 l 0.6425782,-0.183593 c 0.2623443,-0.05976 0.5340327,-0.102681 0.8125,-0.132813 -0.018923,-0.277799 -0.03125,-0.55729 -0.03125,-0.839844 C 5.5742188,6.2303204 11.054541,0.75 17.800781,0.75 Z m 0,1.109375 c -6.146742,0 -11.1171872,4.970444 -11.1171872,11.117187 0,0.267915 0.01072,0.533753 0.029297,0.796876 0.4093242,0.01074 0.8355157,0.04886 1.2753906,0.115234 l 0.5351563,-1.404297 c 1.36,-1.32 2.6464683,-2.37325 3.8554683,-3.15625 0.74,-0.049 1.550641,-0.049 2.431641,0 2.015001,-1.996 3.867595,-3.4530938 5.558594,-4.3710938 l 1.080078,1.8105469 c 0.403,0.614 0.403,1.1056094 0,1.4746094 0.527001,0.578 0.640749,1.3354377 0.34375,2.2734375 -0.144,-0.5859998 -0.468655,-0.9992814 -0.972657,-1.2382812 0.182,0.7810002 0.109249,1.4405152 -0.21875,1.9785152 -0.240999,-0.63 -0.629015,-1.060109 -1.166015,-1.287109 0.085,1.315 -0.141688,2.121969 -0.679688,2.417969 -0.11,-0.305 -0.313328,-0.504703 -0.611328,-0.595703 -0.312999,-0.051 -0.671359,-0.02977 -0.943359,0.240234 -0.779999,0.757 -0.464297,1.916406 -0.0293,2.191406 0.382,0.306 0.852203,0.365688 1.408203,0.179688 0.528,-0.12 0.733671,-0.785625 0.763672,-1.265625 0.457,0.408 0.646453,0.839781 0.564453,1.300781 0.664999,-0.41 1.022219,-1.086297 1.074219,-2.029297 0.37,0.389 0.480983,0.905781 0.333984,1.550781 0.635001,-0.329 1.017485,-1.032375 1.146485,-2.109375 1.099001,1.54 1.469376,3.067079 1.109375,4.580079 -0.426999,-0.624001 -1.034312,-0.688407 -1.820313,-0.191407 -1.167999,0.738 -2.611376,1.951438 -2.984375,4.273438 l -0.01172,0.07227 c -0.174649,1.53314 0.99973,3.017454 3.28711,2.671875 4.037851,-1.665619 6.876953,-5.636068 6.876953,-10.279297 0,-6.146743 -4.972399,-11.117187 -11.119141,-11.117187 z m -3.412109,8.351563 c -1.061999,0.519998 -1.789641,0.612343 -2.181641,0.277343 -0.65,0.281 -0.953109,0.747391 -0.912109,1.400391 0.408,-0.526 1.143078,-0.680844 2.205078,-0.464844 0.532,-0.292 0.826672,-0.695891 0.888672,-1.21289 z m 4.628906,6.820312 c -2.948001,0.353 -5.254875,1.607766 -6.921875,3.759766 0.517,-0.261 1.1215,-0.349719 1.8125,-0.261719 -1.376,0.97 -2.05425,2.007328 -2.03125,3.111328 1.006,-1.086 2.210233,-1.539422 3.615235,-1.357422 -0.948001,0.947 -1.13083,2.046875 -0.548829,3.296875 0.321,-0.966 0.841594,-1.509906 1.558594,-1.628906 0.517,1.408 1.683,2.053594 3.5,1.933594 -0.306547,-0.251293 -0.579177,-0.504034 -0.835937,-0.757813 -0.0026,2.87e-4 -0.0052,-2.85e-4 -0.0078,0 -0.04661,-0.04606 -0.08587,-0.09257 -0.130859,-0.138672 -0.08724,-0.08953 -0.172844,-0.179693 -0.253906,-0.269531 -0.08367,-0.09248 -0.163132,-0.184529 -0.240235,-0.277344 -0.06661,-0.08039 -0.131656,-0.161549 -0.193359,-0.242187 -0.0291,-0.038 -0.0638,-0.0752 -0.0918,-0.113281 0.0033,-1.31e-4 0.0065,1.3e-4 0.0098,0 -1.659586,-2.255977 -1.411687,-4.60737 0.759766,-7.054688 z" />
</svg>
