<?xml version="1.0" encoding="UTF-8" standalone="no"?>
<!-- Generated by IcoMoon.io -->

<svg
   version="1.1"
   width="24.32"
   height="29.285"
   viewBox="0 0 24.32 29.285"
   id="svg6"
   xmlns="http://www.w3.org/2000/svg"
   xmlns:svg="http://www.w3.org/2000/svg"
   xmlns:rdf="http://www.w3.org/1999/02/22-rdf-syntax-ns#"
   xmlns:cc="http://creativecommons.org/ns#"
   xmlns:dc="http://purl.org/dc/elements/1.1/">
  <defs
     id="defs10" />
  <title
     id="title2">voc</title>
  <path
     fill="#444444"
     d="M 0.815,4.454 C 3.726,3.315 6.545,1.886 9.052,0.003 9.074,0.723 8.999,1.452 9.088,2.166 10.087,3.358 11.139,4.509 12.159,5.685 13.197,4.495 14.255,3.322 15.276,2.118 15.262,1.411 15.266,0.707 15.268,0 c 2.505,1.883 5.324,3.316 8.237,4.451 -0.116,2.258 0.338,4.492 0.815,6.689 -0.963,0.876 -1.932,1.749 -2.896,2.625 0.002,1.236 -0.006,2.471 0.004,3.707 0.357,0.288 0.713,0.58 1.066,0.874 C 19.989,22.738 16.44,26.563 12.173,29.285 7.878,26.591 4.337,22.738 1.826,18.346 2.179,18.054 2.533,17.762 2.888,17.474 2.9,16.238 2.89,15.001 2.894,13.765 1.933,12.887 0.962,12.016 0,11.138 0.478,8.945 0.94,6.711 0.815,4.453 Z M 5.756,8.171 C 4.852,9.746 4.947,11.726 5.679,13.346 6.926,16.21 8.638,18.843 10.414,21.401 9.926,19.188 9.577,16.946 9.394,14.69 9.258,13.31 9.483,11.932 9.777,10.588 9.112,9.692 8.494,8.752 7.736,7.929 7.543,7.678 7.147,7.545 6.878,7.515 6.473,7.541 5.934,7.694 5.756,8.169 Z M 16.673,7.844 c -0.798,0.84 -1.433,1.816 -2.128,2.74 0.251,1.214 0.482,2.448 0.407,3.693 -0.158,2.398 -0.537,4.779 -1.046,7.126 1.806,-2.602 3.551,-5.282 4.797,-8.205 0.742,-1.69 0.78,-3.781 -0.29,-5.314 C 18.139,7.492 17.331,7.153 16.674,7.845 Z"
     id="path4" />
  <metadata
     id="metadata827">
    <rdf:RDF>
      <cc:Work
         rdf:about="">
        <dc:title>voc</dc:title>
      </cc:Work>
    </rdf:RDF>
  </metadata>
</svg>
