<?xml version="1.0" encoding="UTF-8" standalone="no"?>
<!-- Generated by IcoMoon.io -->

<svg
   version="1.1"
   width="32"
   height="23.187"
   viewBox="0 0 32 23.187"
   id="svg6"
   xmlns="http://www.w3.org/2000/svg"
   xmlns:svg="http://www.w3.org/2000/svg">
  <defs
     id="defs59">
    <!-- This is the gradient that will actually be used on
     the cards. The colors themselves will be provided by the
     template, but the x values, y values, and offsets will be
     used from the SVG. -->
    <linearGradient
       id="rarity"
       x1="0"
       y1="0"
       x2="27.239383"
       y2="0"
       gradientTransform="scale(1.1747696,0.85123073)"
       gradientUnits="userSpaceOnUse">
      <stop
         offset="0"
         style="stop-color:rgb(192,55,38);stop-opacity:1"
         id="stop2" />
      <stop
         offset="0.125"
         style="stop-color:rgb(192,55,38);stop-opacity:1"
         id="stop4" />
      <stop
         offset="0.5"
         style="stop-color:rgb(241,142,30);stop-opacity:1"
         id="stop6" />
      <stop
         offset="0.875"
         style="stop-color:rgb(192,55,38);stop-opacity:1"
         id="stop8" />
      <stop
         offset="1"
         style="stop-color:rgb(192,55,38);stop-opacity:1"
         id="stop10" />
    </linearGradient>
    <!-- These gradients are here so that you can visualize
     what the set symbol would like like in that rarity. The
     only gradient that matters in the end is the "rarity"
     gradient. -->
    <linearGradient
       id="mythic"
       x1="0"
       y1="1"
       x2="1"
       y2="0">
      <stop
         offset="0"
         style="stop-color:rgb(192,55,38);stop-opacity:1"
         id="stop9" />
      <stop
         offset="0.125"
         style="stop-color:rgb(192,55,38);stop-opacity:1"
         id="stop11" />
      <stop
         offset="0.5"
         style="stop-color:rgb(241,142,30);stop-opacity:1"
         id="stop13" />
      <stop
         offset="0.875"
         style="stop-color:rgb(192,55,38);stop-opacity:1"
         id="stop15" />
      <stop
         offset="1"
         style="stop-color:rgb(192,55,38);stop-opacity:1"
         id="stop17" />
    </linearGradient>
    <linearGradient
       id="rare"
       x1="0"
       y1="1"
       x2="1"
       y2="0">
      <stop
         offset="0"
         style="stop-color:rgb(146,116,67);stop-opacity:1"
         id="stop20" />
      <stop
         offset="0.125"
         style="stop-color:rgb(146,116,67);stop-opacity:1"
         id="stop22" />
      <stop
         offset="0.5"
         style="stop-color:rgb(211,178,108);stop-opacity:1"
         id="stop24" />
      <stop
         offset="0.875"
         style="stop-color:rgb(146,116,67);stop-opacity:1"
         id="stop26" />
      <stop
         offset="1"
         style="stop-color:rgb(146,116,67);stop-opacity:1"
         id="stop28" />
    </linearGradient>
    <linearGradient
       id="special"
       x1="0"
       y1="1"
       x2="1"
       y2="0">
      <stop
         offset="0"
         style="stop-color:rgb(76, 56, 106);stop-opacity:1"
         id="stop31" />
      <stop
         offset="0.125"
         style="stop-color:rgb(76, 56, 106);stop-opacity:1"
         id="stop33" />
      <stop
         offset="0.5"
         style="stop-color:rgb(201, 173, 221);stop-opacity:1"
         id="stop35" />
      <stop
         offset="0.875"
         style="stop-color:rgb(76, 56, 106);stop-opacity:1"
         id="stop37" />
      <stop
         offset="1"
         style="stop-color:rgb(76, 56, 106);stop-opacity:1"
         id="stop39" />
    </linearGradient>
    <linearGradient
       id="uncommon"
       x1="0"
       y1="1"
       x2="1"
       y2="0">
      <stop
         offset="0"
         style="stop-color:rgb(98,110,119);stop-opacity:1"
         id="stop42" />
      <stop
         offset="0.125"
         style="stop-color:rgb(98,110,119);stop-opacity:1"
         id="stop44" />
      <stop
         offset="0.5"
         style="stop-color:rgb(196,222,238);stop-opacity:1"
         id="stop46" />
      <stop
         offset="0.875"
         style="stop-color:rgb(98,110,119);stop-opacity:1"
         id="stop48" />
      <stop
         offset="1"
         style="stop-color:rgb(98,110,119);stop-opacity:1"
         id="stop50" />
    </linearGradient>
    <linearGradient
       id="common"
       x1="0"
       y1="1"
       x2="1"
       y2="0">
      <stop
         offset="0"
         style="stop-color:rgb(0,0,0);stop-opacity:1"
         id="stop53" />
    </linearGradient>
    <linearGradient
       id="rarity-outline"
       x1="0"
       y1="1"
       x2="0"
       y2="1">
      <stop
         offset="0"
         style="stop-color:rgb(0,0,0);stop-opacity:1"
         id="stop56" />
    </linearGradient>
  </defs>
  <path
     fill="url(#rarity)"
     d="m 25.152,0 c 3.091,2.149 3.774,5.623 4.018,6.555 0.163,0.622 0.609,1.152 1.34,1.59 L 32,8.93 c 0,0 -0.898,0.635 -2.693,1.905 -0.495,0.267 -0.667,0.655 -0.514,1.162 0.172,0.559 0.122,1.431 -0.15,2.617 -0.272,1.186 -1.093,2.254 -2.46,3.205 0,0 0.413,-1.814 0.096,-3.495 -0.211,-1.121 -0.936,-1.467 -2.175,-1.04 l -4.755,1.942 c -0.463,0.817 -0.821,1.444 -1.073,1.881 -0.252,0.437 -0.252,0.795 0,1.073 l 0.944,1.123 2.033,0.224 c 0.838,0 1.313,0.352 1.425,1.056 -2.544,-0.279 -4.763,0.589 -6.657,2.604 h -0.042 c -1.894,-2.015 -4.112,-2.882 -6.657,-2.604 0.112,-0.704 0.587,-1.056 1.425,-1.056 l 2.033,-0.224 0.944,-1.123 c 0.252,-0.278 0.252,-0.636 0,-1.073 -0.252,-0.437 -0.61,-1.064 -1.073,-1.881 L 7.896,13.284 C 6.657,12.856 5.932,13.203 5.721,14.324 5.404,16.005 5.817,17.819 5.817,17.819 4.45,16.868 3.63,15.799 3.357,14.614 3.084,13.429 3.034,12.556 3.207,11.997 3.359,11.489 3.188,11.102 2.693,10.835 0.898,9.565 0,8.93 0,8.93 L 1.49,8.145 C 2.221,7.707 2.668,7.177 2.83,6.555 3.074,5.623 3.758,2.149 6.848,0 5.916,2.607 6.234,4.843 7.802,6.707 8.014,6.081 8.334,5.633 8.762,5.363 9.24,6.904 10.208,7.823 11.667,8.12 L 12.575,7.08 12.027,3.789 13.89,1.306 c -0.471,1.722 -0.372,3.142 0.296,4.259 0.463,-0.374 1.067,-0.558 1.813,-0.551 0.746,-0.007 1.351,0.177 1.814,0.551 0.669,-1.117 0.768,-2.537 0.297,-4.259 l 1.863,2.483 -0.548,3.291 0.908,1.04 c 1.459,-0.297 2.428,-1.216 2.905,-2.757 0.428,0.271 0.748,0.719 0.96,1.344 C 25.766,4.843 26.084,2.607 25.152,0 Z M 14.026,8.913 c -0.627,0.03 -0.663,1.183 -0.383,1.953 0.28,0.77 0.61,1.647 1.695,3.298 C 15.317,14.033 14.376,11.408 15.01,10.098 14.772,9.288 14.444,8.893 14.026,8.913 Z m 3.95,0 c -0.418,-0.02 -0.746,0.375 -0.984,1.185 0.634,1.309 -0.307,3.935 -0.328,4.066 1.085,-1.651 1.415,-2.528 1.695,-3.298 0.28,-0.77 0.243,-1.922 -0.383,-1.953 z"
     id="path63"
     style="fill:url(#rarity)" />
</svg>
