<?xml version="1.0" encoding="UTF-8" standalone="no"?>
<svg
   version="1.1"
   width="33.920433"
   height="23.750454"
   viewBox="0 0 33.920433 23.750454"
   id="svg4"
   sodipodi:docname="wth.svg"
   inkscape:version="1.1.1 (3bf5ae0d25, 2021-09-20)"
   xmlns:inkscape="http://www.inkscape.org/namespaces/inkscape"
   xmlns:sodipodi="http://sodipodi.sourceforge.net/DTD/sodipodi-0.dtd"
   xmlns="http://www.w3.org/2000/svg"
   xmlns:svg="http://www.w3.org/2000/svg">
  <sodipodi:namedview
     id="namedview70"
     pagecolor="#ffffff"
     bordercolor="#666666"
     borderopacity="1.0"
     inkscape:pageshadow="2"
     inkscape:pageopacity="0.0"
     inkscape:pagecheckerboard="0"
     showgrid="false"
     inkscape:zoom="22.627417"
     inkscape:cx="21.456271"
     inkscape:cy="14.782951"
     inkscape:window-width="1920"
     inkscape:window-height="1009"
     inkscape:window-x="-8"
     inkscape:window-y="-8"
     inkscape:window-maximized="1"
     inkscape:current-layer="svg4" />
  <defs
     id="defs59">
    <!-- This is the gradient that will actually be used on
     the cards. The colors themselves will be provided by the
     template, but the x values, y values, and offsets will be
     used from the SVG. -->
    <linearGradient
       id="rarity"
       x1="0"
       y1="1"
       x2="1"
       y2="0">
      <stop
         offset="0"
         style="stop-color:rgb(192,55,38);stop-opacity:1"
         id="stop2" />
      <stop
         offset="0.125"
         style="stop-color:rgb(192,55,38);stop-opacity:1"
         id="stop4" />
      <stop
         offset="0.5"
         style="stop-color:rgb(241,142,30);stop-opacity:1"
         id="stop6" />
      <stop
         offset="0.875"
         style="stop-color:rgb(192,55,38);stop-opacity:1"
         id="stop8" />
      <stop
         offset="1"
         style="stop-color:rgb(192,55,38);stop-opacity:1"
         id="stop10" />
    </linearGradient>
    <!-- These gradients are here so that you can visualize
     what the set symbol would like like in that rarity. The
     only gradient that matters in the end is the "rarity"
     gradient. -->
    <linearGradient
       id="mythic"
       x1="0"
       y1="1"
       x2="1"
       y2="0">
      <stop
         offset="0"
         style="stop-color:rgb(192,55,38);stop-opacity:1"
         id="stop9" />
      <stop
         offset="0.125"
         style="stop-color:rgb(192,55,38);stop-opacity:1"
         id="stop11" />
      <stop
         offset="0.5"
         style="stop-color:rgb(241,142,30);stop-opacity:1"
         id="stop13" />
      <stop
         offset="0.875"
         style="stop-color:rgb(192,55,38);stop-opacity:1"
         id="stop15" />
      <stop
         offset="1"
         style="stop-color:rgb(192,55,38);stop-opacity:1"
         id="stop17" />
    </linearGradient>
    <linearGradient
       id="rare"
       x1="0"
       y1="1"
       x2="1"
       y2="0">
      <stop
         offset="0"
         style="stop-color:rgb(146,116,67);stop-opacity:1"
         id="stop20" />
      <stop
         offset="0.125"
         style="stop-color:rgb(146,116,67);stop-opacity:1"
         id="stop22" />
      <stop
         offset="0.5"
         style="stop-color:rgb(211,178,108);stop-opacity:1"
         id="stop24" />
      <stop
         offset="0.875"
         style="stop-color:rgb(146,116,67);stop-opacity:1"
         id="stop26" />
      <stop
         offset="1"
         style="stop-color:rgb(146,116,67);stop-opacity:1"
         id="stop28" />
    </linearGradient>
    <linearGradient
       id="special"
       x1="0"
       y1="1"
       x2="1"
       y2="0">
      <stop
         offset="0"
         style="stop-color:rgb(76, 56, 106);stop-opacity:1"
         id="stop31" />
      <stop
         offset="0.125"
         style="stop-color:rgb(76, 56, 106);stop-opacity:1"
         id="stop33" />
      <stop
         offset="0.5"
         style="stop-color:rgb(201, 173, 221);stop-opacity:1"
         id="stop35" />
      <stop
         offset="0.875"
         style="stop-color:rgb(76, 56, 106);stop-opacity:1"
         id="stop37" />
      <stop
         offset="1"
         style="stop-color:rgb(76, 56, 106);stop-opacity:1"
         id="stop39" />
    </linearGradient>
    <linearGradient
       id="uncommon"
       x1="0"
       y1="1"
       x2="1"
       y2="0">
      <stop
         offset="0"
         style="stop-color:rgb(98,110,119);stop-opacity:1"
         id="stop42" />
      <stop
         offset="0.125"
         style="stop-color:rgb(98,110,119);stop-opacity:1"
         id="stop44" />
      <stop
         offset="0.5"
         style="stop-color:rgb(196,222,238);stop-opacity:1"
         id="stop46" />
      <stop
         offset="0.875"
         style="stop-color:rgb(98,110,119);stop-opacity:1"
         id="stop48" />
      <stop
         offset="1"
         style="stop-color:rgb(98,110,119);stop-opacity:1"
         id="stop50" />
    </linearGradient>
    <linearGradient
       id="common"
       x1="0"
       y1="1"
       x2="1"
       y2="0">
      <stop
         offset="0"
         style="stop-color:rgb(0,0,0);stop-opacity:1"
         id="stop53" />
    </linearGradient>
    <linearGradient
       id="rarity-outline"
       x1="0"
       y1="28.383061"
       x2="0"
       y2="28.383061"
       gradientTransform="scale(1.1950762,0.83676669)"
       gradientUnits="userSpaceOnUse">
      <stop
         offset="0"
         style="stop-color:rgb(0,0,0);stop-opacity:1"
         id="stop56" />
    </linearGradient>
  </defs>
  <path
     id="path61"
     style="fill:url(#rarity-outline)"
     d="M 9.5761719,0 8.6113281,4.1816406 7.6777344,3.3769531 7.203125,5.3886719 6.5839844,5.6054688 6.5214844,5.8007812 5.921875,6.015625 5.8710938,6.1914062 5.2070312,6.4589844 5.0761719,7.0117188 H 4.0175781 L 0,22.423828 h 13.613281 c 0.07163,0.188122 -0.0027,0.242927 0.167969,0.425781 0.49302,0.528279 1.376311,0.900391 2.835938,0.900391 1.446543,0 2.335983,-0.327384 2.875,-0.767578 0.172988,-0.141272 0.247217,-0.283914 0.345703,-0.427734 h 14.082031 l -0.251953,-0.94336 C 32.435012,16.992961 31.18561,12.371024 29.960938,7.7597656 L 29.814453,7.2050781 29.242188,7.203125 28.244141,7.1953125 28.064453,7.1171875 28.005859,6.9101562 27.160156,6.5117188 26.714844,5.1035156 25.910156,5.5527344 c 0,0 -0.508872,0.2857029 -1.27539,0.5214844 -0.12147,0.037364 -0.535205,-0.010614 -1.164063,-0.171875 -0.628858,-0.1612613 -1.450409,-0.3808594 -2.435547,-0.3808594 -1.603316,0 -2.847722,0.3397282 -3.335937,0.4589844 C 17.540972,5.6351565 17.397814,5.2587712 17.189453,5 16.863157,4.59476 16.434417,4.3006206 15.966797,4.1621094 15.062191,3.8941611 14.143258,4.1040672 12.964844,4.3535156 12.472335,4.3755053 11.830844,3.9000818 11.324219,3.2617188 10.815783,2.6210738 10.5,1.9570314 10.5,1.9570312 Z m 0.3574219,3.3359375 h 0.00195 c 0,0 0.4841562,1.9084844 2.4101562,2.0214844 1.925,0.115 4.093078,-1.4689219 4.580078,1.8300781 0,0 -0.132812,11.645437 -0.132812,11.648438 0,-0.074 -0.346531,-0.300797 -0.394531,-0.341797 -0.362,-0.283 -0.751391,-0.539485 -1.150391,-0.771485 -1.182,-0.697 -2.510484,-1.311156 -3.896485,-1.410156 -0.807999,-0.057 -1.6065308,0.06766 -2.3945309,0.222656 -1.141,0.22 -1.8710937,0.164063 -1.8710937,0.164063 z M 8.3476562,5.2441406 9.0117188,5.7949219 6.6269531,17.158203 c 0,0 1.3209063,0.0595 3.1289063,-0.3125 1.7719996,-0.364 4.7594376,0.412688 6.7734376,2.304688 0,0 -3.062141,-2.297063 -7.3691408,-1.664063 -1.669,0.242 -3.7539062,0.443359 -3.7539062,0.44336 0.002,-0.005 2.9414063,-12.6855474 2.9414062,-12.6855474 z m -0.5898437,0.8554688 -0.03125,0.1367187 0.00586,0.00391 v 0.00195 h -0.00781 L 4.9238281,18.339844 c 0,0 2.1927656,-0.247094 3.0097657,-0.371094 0.852,-0.13 4.7149222,-0.928391 8.1699222,1.224609 0,0 -3.307672,-1.338015 -6.3886722,-1.041015 -3.084,0.298 -4.3453907,0.558187 -5.2753907,0.742187 l 2.9238281,-12.6503904 0.203125,-0.074219 -0.00977,-0.00977 0.00977,-0.037109 0.042969,0.03125 z m 13.3085935,0.375 c 0.813,0 1.511,0.1799375 2.125,0.3359375 0.686,0.177 1.276641,0.3290156 1.806641,0.1660156 0.374,-0.115 0.754312,-0.2634375 1.070312,-0.3984375 l 3.476563,12.453125 c 0,0 -9.059969,-1.553609 -12.167969,0.775391 l 0.002,-12.8183598 c 0.019,-0.005 0.0293,-0.00781 0.0293,-0.00781 0.021,-0.005 1.984203,-0.5058594 3.658203,-0.5058594 z M 7.0917969,6.5039062 4.0878906,19.212891 c 0,0 3.732344,-0.836829 6.7773434,-0.798829 3.045,0.036 4.681641,0.927735 4.681641,0.927735 0,0 -2.526844,-0.742859 -5.089844,-0.630859 -2.5629996,0.109999 -5.2129841,0.61739 -6.9589841,1.02539 L 6.7304688,6.6328125 h 0.00195 z M 6.4492188,6.9238281 3.0683594,20.160156 c 0,0 2.6854843,-0.569625 4.0214844,-0.765625 1.338,-0.199 7.3767972,-1.138547 9.9667972,1.189453 0,0 1.746547,-0.904296 5.435547,-0.904296 3.689,0 6.537156,0.645171 8.285156,0.451171 L 27.564453,7.8574219 28.015625,8.0507812 31.230469,20.519531 H 19.125 l -0.002,-0.002 c 0,0 0.390375,1.423828 -2.390625,1.423828 -2.784,0 -2.332031,-1.552734 -2.332031,-1.552734 H 2.6894531 L 6.125,7.0371094 Z m 20.1582032,0.3457031 0.550781,0.2578126 3.226563,12.3750002 c 0,0 -1.488172,1.25e-4 -4.951172,-0.421875 -3.463,-0.419 -7.279297,0.261719 -7.279297,0.261719 0,0 3.396594,-1.650469 11.808594,-0.355469 z"
     sodipodi:nodetypes="ccccccccccccccssccccccccccccssscsscscccccccccccccccccccccccccccccccccccccccccccccscccccccccccccsccccccscccccccccccc" />
</svg>
