<?xml version="1.0" encoding="UTF-8" standalone="no"?>
<svg
   width="31.936001"
   height="13.465"
   viewBox="0 0 31.936001 13.465"
   version="1.1"
   xml:space="preserve"
   style="clip-rule:evenodd;fill-rule:evenodd;stroke-linejoin:round;stroke-miterlimit:2"
   id="svg8"
   xmlns="http://www.w3.org/2000/svg"
   xmlns:svg="http://www.w3.org/2000/svg"><defs
   id="defs12" />
    <path
   d="m 24.661,5.843 0.457,1.266 C 21.673,4.926 18.4,6.074 18.4,6.074 18.056,4.695 18.459,2.801 18.459,2.801 21.96,1.137 27.3,3.204 27.3,3.204 26.018,4.109 25.469,4.485 24.661,5.843 Z M 20.56,7.538 19.722,7.109 c 0.401,-0.344 0.862,-0.287 0.862,-0.287 l -0.023,0.716 z m -2.791,0.43 C 16.506,7.223 10.419,4.064 4.277,4.581 c 0,0 2.468,-0.862 4.536,-1.205 0,0 -0.458,-0.745 -2.986,-1.951 0,0 5.627,0.057 11.484,3.617 0,0 0,0.975 0.344,1.78 0.344,0.802 0.862,0.572 0.862,0.572 0,0 0.802,0.634 1.492,0.862 0,0 -0.977,0.46 -2.24,-0.287 z m 8.383,-0.574 c 0,0 -0.195,-0.608 -0.596,-1.47 0,0 1.113,-1.229 2.663,-2.031 l -2.067,3.5 z m 4.389,-7.393 c -0.769,0 -1.393,0.623 -1.393,1.394 0,0.384 0.156,0.73 0.408,0.984 L 29.281,2.845 28.434,2.811 C 28.039,2.659 27.581,2.479 27.581,2.479 27.349,2.39 21.886,0.313 18.126,2.101 L 17.78,2.266 17.7,2.639 C 17.689,2.688 17.548,3.382 17.502,4.256 13.015,1.585 8.596,0.893 6.744,0.709 4.76,0.513 2.785,0.705 2.785,0.705 5.427,1.94 7.046,2.956 7.046,2.956 7.046,2.956 4.622,3.287 0,5.555 L 4.343,5.352 c 6.472,-0.545 12.768,3.125 13.034,3.281 1.073,0.636 2.141,0.655 2.751,0.401 1.484,-0.61 1.214,-2.451 1.214,-2.451 0.988,0.102 2.158,0.416 3.362,1.178 l 0.846,0.551 -2.584,4.464 0.976,0.689 6.028,-9.819 -0.114,-0.458 0.277,-0.471 c 0.129,0.04 0.266,0.07 0.41,0.07 0.771,0 1.393,-0.625 1.393,-1.393 C 31.936,0.623 31.313,0 30.543,0 Z"
   style="fill:none;fill-rule:nonzero"
   id="path2" />
    <path
   id="path4"
   style="fill-rule:nonzero"
   d="M 30.542969 0 L 30.541016 0.001953125 C 29.772016 0.001953125 29.148438 0.62353125 29.148438 1.3945312 C 29.148438 1.7785312 29.304641 2.1249063 29.556641 2.3789062 L 29.28125 2.8457031 L 28.433594 2.8105469 C 28.038594 2.6585469 27.580078 2.4785156 27.580078 2.4785156 C 27.348078 2.3895156 21.886953 0.3135625 18.126953 2.1015625 L 17.779297 2.265625 L 17.699219 2.6386719 C 17.688219 2.6876719 17.547953 3.3818594 17.501953 4.2558594 C 13.014953 1.5848594 8.5961406 0.89298438 6.7441406 0.70898438 C 4.7601406 0.51298438 2.7851562 0.70507812 2.7851562 0.70507812 C 5.4271562 1.9400781 7.046875 2.9550781 7.046875 2.9550781 C 7.046875 2.9550781 4.622 3.2866875 0 5.5546875 L 4.34375 5.3515625 C 10.81575 4.8065625 17.110953 8.4768125 17.376953 8.6328125 C 18.449953 9.2688125 19.518906 9.2872031 20.128906 9.0332031 C 21.612906 8.4232031 21.341797 6.5820312 21.341797 6.5820312 C 22.329797 6.6840313 23.499125 6.9997188 24.703125 7.7617188 L 25.550781 8.3125 L 22.966797 12.775391 L 23.941406 13.464844 L 29.970703 3.6464844 L 29.855469 3.1875 L 30.132812 2.7167969 C 30.261813 2.7567969 30.398969 2.7871094 30.542969 2.7871094 C 31.313969 2.7871094 31.935547 2.1625312 31.935547 1.3945312 C 31.935547 0.62353125 31.312969 0 30.542969 0 z M 5.8261719 1.4257812 C 5.8261719 1.4257812 11.453547 1.4829687 17.310547 5.0429688 C 17.310547 5.0429688 17.310297 6.0172656 17.654297 6.8222656 C 17.998297 7.6242656 18.517578 7.3945313 18.517578 7.3945312 C 18.517578 7.3945312 19.319766 8.0278594 20.009766 8.2558594 C 20.009766 8.2558594 19.032531 8.71575 17.769531 7.96875 C 16.506531 7.22375 10.419344 4.0630781 4.2773438 4.5800781 C 4.2773438 4.5800781 6.7445 3.7199531 8.8125 3.3769531 C 8.8125 3.3769531 8.3541719 2.6317812 5.8261719 1.4257812 z M 22.060547 2.15625 C 24.775691 2.226144 27.300781 3.203125 27.300781 3.203125 C 26.018781 4.108125 25.468156 4.48575 24.660156 5.84375 L 25.117188 7.109375 C 21.672187 4.926375 18.400391 6.0742187 18.400391 6.0742188 C 18.056391 4.6952188 18.458984 2.8007812 18.458984 2.8007812 C 19.553047 2.2807812 20.82639 2.12448 22.060547 2.15625 z M 28.21875 3.8925781 L 26.152344 7.3925781 C 26.152344 7.3895781 25.956641 6.7838281 25.556641 5.9238281 C 25.556641 5.9238281 26.66875 4.6945781 28.21875 3.8925781 z M 20.464844 6.8183594 C 20.479672 6.8177905 20.493488 6.8183672 20.505859 6.8183594 C 20.530602 6.8183438 20.549111 6.8194258 20.5625 6.8203125 C 20.575889 6.8211992 20.583984 6.8222656 20.583984 6.8222656 L 20.560547 7.5371094 L 19.722656 7.109375 C 19.772781 7.066375 19.824018 7.0294102 19.875 6.9980469 C 19.925982 6.9666836 19.975586 6.9414375 20.025391 6.9199219 C 20.075195 6.8984062 20.125283 6.8806445 20.171875 6.8671875 C 20.218467 6.8537305 20.261391 6.843125 20.302734 6.8359375 C 20.36475 6.8251563 20.42036 6.8200659 20.464844 6.8183594 z " />
    
</svg>
