<?xml version="1.0" encoding="UTF-8" standalone="no"?>
<svg
   version="1.1"
   width="31.878996"
   height="25.545759"
   viewBox="0 0 31.878996 25.545759"
   id="svg4"
   sodipodi:docname="aer.svg"
   inkscape:version="1.1.1 (3bf5ae0d25, 2021-09-20)"
   xmlns:inkscape="http://www.inkscape.org/namespaces/inkscape"
   xmlns:sodipodi="http://sodipodi.sourceforge.net/DTD/sodipodi-0.dtd"
   xmlns="http://www.w3.org/2000/svg"
   xmlns:svg="http://www.w3.org/2000/svg">
  <sodipodi:namedview
     id="namedview65"
     pagecolor="#ffffff"
     bordercolor="#666666"
     borderopacity="1.0"
     inkscape:pageshadow="2"
     inkscape:pageopacity="0.0"
     inkscape:pagecheckerboard="0"
     showgrid="false"
     inkscape:zoom="30.457173"
     inkscape:cx="15.940416"
     inkscape:cy="12.788449"
     inkscape:window-width="1920"
     inkscape:window-height="1009"
     inkscape:window-x="-8"
     inkscape:window-y="-8"
     inkscape:window-maximized="1"
     inkscape:current-layer="svg4" />
  <defs
     id="defs8" />
  <path
     fill="url(#rarity)"
     d="M 9.5604571,3.4133482 C 10.303669,2.9069327 11.239131,2.7131193 12.126921,2.8186226 c 0.761186,0.1000327 1.516902,0.431391 2.028788,1.0159571 0.329014,0.3719966 0.520483,0.8784122 0.450148,1.3762312 -0.06877,0.5837846 -0.449366,1.0628474 -0.822926,1.4903309 -0.354803,0.354022 -0.792446,0.6072298 -1.208989,0.8807567 -1.654447,1.0448729 -3.3307762,2.1163169 -4.6530835,3.5792955 -1.2566608,1.352004 -1.8717056,3.258096 -1.7044635,5.089945 0.1086293,1.229308 0.6564647,2.406255 1.4965831,3.305768 0.7463377,0.804951 1.7693284,1.386391 2.8759399,1.47392 0.310258,0.01797 0.661154,0.06955 0.926866,-0.131293 0.20788,-0.141453 0.262586,-0.416543 0.232888,-0.651776 -0.05783,-0.481407 -0.35324,-0.904983 -0.726018,-1.202737 C 10.494356,18.619882 9.8722777,18.331507 9.2439473,18.086895 8.764103,17.8923 8.277225,17.691454 7.8669346,17.368692 7.6301385,17.181912 7.417569,16.93183 7.3698972,16.624699 c -0.038294,-0.313384 0.016412,-0.63302 0.1266038,-0.926866 0.1727128,0.279779 0.4345171,0.549398 0.7838501,0.56581 0.2649303,-7.81e-4 0.5493983,-0.02735 0.7775979,-0.175057 0.1992839,-0.132856 0.1985024,-0.405602 0.1469231,-0.614264 -0.1625532,-0.682254 -0.5665915,-1.315273 -0.5345498,-2.036603 0.010941,-0.37903 0.2367962,-0.713514 0.5243902,-0.946403 0.494693,-0.408727 1.1277125,-0.574407 1.7099345,-0.817455 0.214914,-0.09613 0.447802,-0.200847 0.583003,-0.40482 0.148486,-0.250081 0.147704,-0.594725 -0.04064,-0.825269 -0.227418,-0.282905 -0.585347,-0.407165 -0.924521,-0.4986008 0.515013,-0.1211334 1.067537,-0.1078478 1.56223,0.089873 0.476718,0.187562 0.897168,0.505634 1.239468,0.883101 0.411853,0.482189 0.203972,1.279325 -0.321981,1.588801 -0.719766,0.423576 -1.366071,1.112864 -1.473919,1.971738 -0.08909,0.592382 0.452492,1.108957 1.018302,1.151158 -0.157083,-0.441551 -0.158646,-0.937025 0.02188,-1.371542 0.196939,-0.522827 0.615826,-0.910454 0.948747,-1.345753 0.577533,-0.722111 1.066755,-1.516902 1.426248,-2.368743 0.413416,-0.9667217 0.710388,-1.9772083 0.993293,-2.9876949 0.34777,1.208989 0.697103,2.427356 1.260569,3.5574129 0.335266,0.676002 0.761186,1.303551 1.234778,1.890462 0.307914,0.392315 0.676784,0.750245 0.862783,1.221493 0.19225,0.443113 0.19772,0.952655 0.03517,1.405147 0.431391,-0.03908 0.8409,-0.325888 0.984697,-0.740086 0.08987,-0.291502 0.0211,-0.604885 -0.08206,-0.883101 -0.250863,-0.644742 -0.769783,-1.151939 -1.357475,-1.498146 -0.526735,-0.308695 -0.733052,-1.105831 -0.32198,-1.58802 0.455617,-0.503289 1.055814,-0.90889 1.735723,-1.0206455 0.354022,-0.063302 0.716641,-0.028916 1.065974,0.045327 -0.327451,0.090654 -0.671313,0.2078805 -0.901076,0.4712475 -0.250082,0.275872 -0.224292,0.758061 0.06252,0.997983 0.237577,0.195376 0.535331,0.292283 0.818236,0.401694 0.585347,0.220384 1.217585,0.444676 1.619279,0.952655 0.242267,0.291501 0.297754,0.693977 0.232107,1.058158 -0.09144,0.578314 -0.386063,1.097234 -0.518919,1.664607 -0.04923,0.204755 -0.04533,0.470466 0.15083,0.598633 0.2282,0.146923 0.511886,0.173495 0.776035,0.174276 0.349333,-0.01485 0.612701,-0.284468 0.78385,-0.565028 0.111756,0.294627 0.168805,0.615044 0.12973,0.92921 -0.05236,0.332921 -0.297753,0.595507 -0.558776,0.78932 -0.533769,0.393097 -1.169914,0.600196 -1.773236,0.857312 -0.490004,0.217258 -0.97063,0.47281 -1.38092,0.82058 -0.331359,0.279779 -0.589256,0.66428 -0.65881,1.096453 -0.03126,0.203973 -0.01719,0.435298 0.115663,0.604103 0.121134,0.144579 0.304787,0.228981 0.490786,0.247738 0.948747,0.05002 1.89984,-0.261023 2.664933,-0.8198 1.09489,-0.797135 1.875614,-2.013939 2.157737,-3.33781 0.41498,-2.054578 -0.236796,-4.295154 -1.686489,-5.80893 C 22.522507,9.6075608 20.81101,8.5392428 19.134681,7.4763953 18.702508,7.1880198 18.237513,6.9191819 17.918658,6.4979504 17.574796,6.0837525 17.261412,5.5960931 17.255942,5.0404427 c -0.0211,-0.6205154 0.350114,-1.1847624 0.828395,-1.5505069 1.172259,-0.9010759 2.897823,-0.9120169 4.136509,-0.137545 0.460307,0.2969721 0.865127,0.7291446 1.023772,1.2629129 0.133638,0.43608 -0.133637,0.8924792 -0.490785,1.1316199 -0.43608,0.281342 -0.992512,0.2586784 -1.478609,0.139108 0.239141,-0.2063174 0.491567,-0.4556177 0.521265,-0.7877575 0.0094,-0.3235433 -0.286031,-0.5525244 -0.561903,-0.6549016 -0.411853,-0.1594272 -0.969067,0.032823 -1.109738,0.4728108 -0.103158,0.4665588 0.216477,0.8893532 0.536113,1.1910144 0.879194,0.8072951 1.922504,1.4067099 2.957998,1.9889315 1.256661,0.6502125 2.442205,1.4817344 3.35813,2.5711528 0.594725,0.709607 1.059721,1.542692 1.264475,2.450801 0.394661,1.833412 0.01954,3.797336 -0.955781,5.392388 -0.932336,1.533314 -2.290592,2.811076 -3.889553,3.629312 -0.815891,0.408727 -1.731816,0.700229 -2.653992,0.591599 -0.858875,-0.08597 -1.72322,-0.399349 -2.347643,-1.012049 -0.300879,-0.291502 -0.413416,-0.738523 -0.327451,-1.143343 0.113319,-0.572062 0.465778,-1.067536 0.875287,-1.468448 0.307131,-0.307132 0.70101,-0.498601 1.037057,-0.76822 0.641616,-0.496256 1.266039,-1.161318 1.331686,-2.010814 -0.388409,0.253208 -0.830741,0.404038 -1.27151,0.537676 -0.568154,0.178183 -1.126149,0.427483 -1.578641,0.822144 -0.39466,0.339954 -0.686943,0.783068 -0.905765,1.252753 -0.335266,0.713514 -0.55018,1.474701 -0.776035,2.22729 -0.256333,-0.802606 -0.55018,-1.627875 -0.473592,-2.484405 0.03673,-0.447803 0.182872,-0.878413 0.375123,-1.282451 0.357148,-0.77369 0.626767,-1.633346 0.500163,-2.493784 -0.139889,-0.783069 -0.700229,-1.394987 -1.244157,-1.937352 -0.539238,0.546272 -1.101922,1.155065 -1.241812,1.938915 -0.128167,0.873723 0.152394,1.745102 0.516575,2.529733 0.221948,0.466559 0.368871,0.975319 0.369652,1.49502 0.0063,0.772128 -0.250081,1.51065 -0.486096,2.235888 -0.217259,-0.729927 -0.428265,-1.465323 -0.743993,-2.160082 -0.213351,-0.470466 -0.493912,-0.918269 -0.878412,-1.267602 -0.438425,-0.404038 -0.988605,-0.662716 -1.550507,-0.847152 -0.468904,-0.144578 -0.94484,-0.294627 -1.358257,-0.566591 0.04923,0.697103 0.496256,1.284795 1.000327,1.734942 0.308695,0.284468 0.661154,0.514231 1.009705,0.746338 0.53455,0.391534 0.980008,0.933117 1.187107,1.568481 0.147705,0.44077 0.08362,0.969849 -0.250082,1.310585 -0.625204,0.634583 -1.505961,0.955781 -2.379684,1.04331 C 10.180972,22.843919 9.2384768,22.530536 8.4030474,22.101489 6.9306911,21.330143 5.6693412,20.168826 4.7588873,18.780872 3.9891044,17.607051 3.5194196,16.226131 3.4850333,14.817858 3.4662772,13.979302 3.5569318,13.124335 3.8773491,12.343611 4.4142434,11.015052 5.4434861,9.9482972 6.5883917,9.1175568 7.0705805,8.7674424 7.5793406,8.4524957 8.1092013,8.1781872 8.9633869,7.7116284 9.8066313,7.2184985 10.586574,6.6347139 10.904647,6.3908842 11.221938,6.1376764 11.476709,5.8258557 11.668959,5.585152 11.815882,5.2748943 11.76274,4.9591661 11.708034,4.6950172 11.470456,4.5066744 11.222719,4.4308684 10.86479,4.3167686 10.456844,4.4543135 10.214577,4.733311 c -0.113318,0.1289484 -0.166461,0.3133837 -0.116444,0.4806259 0.07268,0.281342 0.289938,0.4900039 0.501726,0.6744392 C 10.113763,6.0079465 9.558894,6.0298286 9.122814,5.7500497 8.764103,5.5101275 8.4952651,5.0529468 8.631247,4.6168667 8.7781701,4.1198292 9.1439146,3.7126648 9.5604571,3.4172558 Z"
     id="path2"
     style="fill:url(#rarity);stroke-width:0.781506" />
  <defs
     id="defs62">
    <!-- This is the gradient that will actually be used on
     the cards. The colors themselves will be provided by the
     template, but the x values, y values, and offsets will be
     used from the SVG. -->
    <linearGradient
       id="rarity"
       x1="0.67142637"
       y1="29.384041"
       x2="29.20865"
       y2="0.84681707"
       gradientTransform="matrix(0.87302151,0,0,0.6995828,2.896523,2.1983853)"
       gradientUnits="userSpaceOnUse">
      <stop
         offset="0"
         style="stop-color:rgb(192,55,38);stop-opacity:1"
         id="stop2" />
      <stop
         offset="0.125"
         style="stop-color:rgb(192,55,38);stop-opacity:1"
         id="stop4" />
      <stop
         offset="0.5"
         style="stop-color:rgb(241,142,30);stop-opacity:1"
         id="stop6" />
      <stop
         offset="0.875"
         style="stop-color:rgb(192,55,38);stop-opacity:1"
         id="stop8" />
      <stop
         offset="1"
         style="stop-color:rgb(192,55,38);stop-opacity:1"
         id="stop10" />
    </linearGradient>
    <!-- These gradients are here so that you can visualize
     what the set symbol would like like in that rarity. The
     only gradient that matters in the end is the "rarity"
     gradient. -->
    <linearGradient
       id="mythic"
       x1="0"
       y1="1"
       x2="1"
       y2="0">
      <stop
         offset="0"
         style="stop-color:rgb(192,55,38);stop-opacity:1"
         id="stop12" />
      <stop
         offset="0.125"
         style="stop-color:rgb(192,55,38);stop-opacity:1"
         id="stop14" />
      <stop
         offset="0.5"
         style="stop-color:rgb(241,142,30);stop-opacity:1"
         id="stop16" />
      <stop
         offset="0.875"
         style="stop-color:rgb(192,55,38);stop-opacity:1"
         id="stop18" />
      <stop
         offset="1"
         style="stop-color:rgb(192,55,38);stop-opacity:1"
         id="stop20" />
    </linearGradient>
    <linearGradient
       id="rare"
       x1="0"
       y1="1"
       x2="1"
       y2="0">
      <stop
         offset="0"
         style="stop-color:rgb(146,116,67);stop-opacity:1"
         id="stop23" />
      <stop
         offset="0.125"
         style="stop-color:rgb(146,116,67);stop-opacity:1"
         id="stop25" />
      <stop
         offset="0.5"
         style="stop-color:rgb(211,178,108);stop-opacity:1"
         id="stop27" />
      <stop
         offset="0.875"
         style="stop-color:rgb(146,116,67);stop-opacity:1"
         id="stop29" />
      <stop
         offset="1"
         style="stop-color:rgb(146,116,67);stop-opacity:1"
         id="stop31" />
    </linearGradient>
    <linearGradient
       id="special"
       x1="0"
       y1="1"
       x2="1"
       y2="0">
      <stop
         offset="0"
         style="stop-color:rgb(76, 56, 106);stop-opacity:1"
         id="stop34" />
      <stop
         offset="0.125"
         style="stop-color:rgb(76, 56, 106);stop-opacity:1"
         id="stop36" />
      <stop
         offset="0.5"
         style="stop-color:rgb(201, 173, 221);stop-opacity:1"
         id="stop38" />
      <stop
         offset="0.875"
         style="stop-color:rgb(76, 56, 106);stop-opacity:1"
         id="stop40" />
      <stop
         offset="1"
         style="stop-color:rgb(76, 56, 106);stop-opacity:1"
         id="stop42" />
    </linearGradient>
    <linearGradient
       id="uncommon"
       x1="0"
       y1="1"
       x2="1"
       y2="0">
      <stop
         offset="0"
         style="stop-color:rgb(98,110,119);stop-opacity:1"
         id="stop45" />
      <stop
         offset="0.125"
         style="stop-color:rgb(98,110,119);stop-opacity:1"
         id="stop47" />
      <stop
         offset="0.5"
         style="stop-color:rgb(196,222,238);stop-opacity:1"
         id="stop49" />
      <stop
         offset="0.875"
         style="stop-color:rgb(98,110,119);stop-opacity:1"
         id="stop51" />
      <stop
         offset="1"
         style="stop-color:rgb(98,110,119);stop-opacity:1"
         id="stop53" />
    </linearGradient>
    <linearGradient
       id="common"
       x1="0"
       y1="1"
       x2="1"
       y2="0">
      <stop
         offset="0"
         style="stop-color:rgb(0,0,0);stop-opacity:1"
         id="stop56" />
    </linearGradient>
    <linearGradient
       id="rarity-outline"
       x1="0"
       y1="1"
       x2="0"
       y2="1">
      <stop
         offset="0"
         style="stop-color:rgb(0,0,0);stop-opacity:1"
         id="stop59" />
    </linearGradient>
  </defs>
</svg>
