<?xml version="1.0" encoding="UTF-8" standalone="no"?>
<svg
   version="1.1"
   width="30.010921"
   height="34.124165"
   viewBox="0 0 30.010921 34.124165"
   id="svg4"
   sodipodi:docname="c19.svg"
   inkscape:version="1.1.1 (3bf5ae0d25, 2021-09-20)"
   xmlns:inkscape="http://www.inkscape.org/namespaces/inkscape"
   xmlns:sodipodi="http://sodipodi.sourceforge.net/DTD/sodipodi-0.dtd"
   xmlns="http://www.w3.org/2000/svg"
   xmlns:svg="http://www.w3.org/2000/svg">
  <sodipodi:namedview
     id="namedview69"
     pagecolor="#ffffff"
     bordercolor="#666666"
     borderopacity="1.0"
     inkscape:pageshadow="2"
     inkscape:pageopacity="0.0"
     inkscape:pagecheckerboard="0"
     showgrid="false"
     inkscape:zoom="17.074586"
     inkscape:cx="15.139459"
     inkscape:cy="18.477754"
     inkscape:window-width="1920"
     inkscape:window-height="1009"
     inkscape:window-x="-8"
     inkscape:window-y="-8"
     inkscape:window-maximized="1"
     inkscape:current-layer="svg4" />
  <defs
     id="defs59">
    <!-- This is the gradient that will actually be used on
     the cards. The colors themselves will be provided by the
     template, but the x values, y values, and offsets will be
     used from the SVG. -->
    <linearGradient
       id="rarity"
       x1="0"
       y1="0"
       x2="1"
       y2="0">
      <stop
         offset="0"
         style="stop-color:rgb(192,55,38);stop-opacity:1"
         id="stop2" />
      <stop
         offset="0.125"
         style="stop-color:rgb(192,55,38);stop-opacity:1"
         id="stop4" />
      <stop
         offset="0.5"
         style="stop-color:rgb(241,142,30);stop-opacity:1"
         id="stop6" />
      <stop
         offset="0.875"
         style="stop-color:rgb(192,55,38);stop-opacity:1"
         id="stop8" />
      <stop
         offset="1"
         style="stop-color:rgb(192,55,38);stop-opacity:1"
         id="stop10" />
    </linearGradient>
    <!-- These gradients are here so that you can visualize
     what the set symbol would like like in that rarity. The
     only gradient that matters in the end is the "rarity"
     gradient. -->
    <linearGradient
       id="mythic"
       x1="0"
       y1="1"
       x2="1"
       y2="0">
      <stop
         offset="0"
         style="stop-color:rgb(192,55,38);stop-opacity:1"
         id="stop9" />
      <stop
         offset="0.125"
         style="stop-color:rgb(192,55,38);stop-opacity:1"
         id="stop11" />
      <stop
         offset="0.5"
         style="stop-color:rgb(241,142,30);stop-opacity:1"
         id="stop13" />
      <stop
         offset="0.875"
         style="stop-color:rgb(192,55,38);stop-opacity:1"
         id="stop15" />
      <stop
         offset="1"
         style="stop-color:rgb(192,55,38);stop-opacity:1"
         id="stop17" />
    </linearGradient>
    <linearGradient
       id="rare"
       x1="0"
       y1="1"
       x2="1"
       y2="0">
      <stop
         offset="0"
         style="stop-color:rgb(146,116,67);stop-opacity:1"
         id="stop20" />
      <stop
         offset="0.125"
         style="stop-color:rgb(146,116,67);stop-opacity:1"
         id="stop22" />
      <stop
         offset="0.5"
         style="stop-color:rgb(211,178,108);stop-opacity:1"
         id="stop24" />
      <stop
         offset="0.875"
         style="stop-color:rgb(146,116,67);stop-opacity:1"
         id="stop26" />
      <stop
         offset="1"
         style="stop-color:rgb(146,116,67);stop-opacity:1"
         id="stop28" />
    </linearGradient>
    <linearGradient
       id="special"
       x1="0"
       y1="1"
       x2="1"
       y2="0">
      <stop
         offset="0"
         style="stop-color:rgb(76, 56, 106);stop-opacity:1"
         id="stop31" />
      <stop
         offset="0.125"
         style="stop-color:rgb(76, 56, 106);stop-opacity:1"
         id="stop33" />
      <stop
         offset="0.5"
         style="stop-color:rgb(201, 173, 221);stop-opacity:1"
         id="stop35" />
      <stop
         offset="0.875"
         style="stop-color:rgb(76, 56, 106);stop-opacity:1"
         id="stop37" />
      <stop
         offset="1"
         style="stop-color:rgb(76, 56, 106);stop-opacity:1"
         id="stop39" />
    </linearGradient>
    <linearGradient
       id="uncommon"
       x1="0"
       y1="1"
       x2="1"
       y2="0">
      <stop
         offset="0"
         style="stop-color:rgb(98,110,119);stop-opacity:1"
         id="stop42" />
      <stop
         offset="0.125"
         style="stop-color:rgb(98,110,119);stop-opacity:1"
         id="stop44" />
      <stop
         offset="0.5"
         style="stop-color:rgb(196,222,238);stop-opacity:1"
         id="stop46" />
      <stop
         offset="0.875"
         style="stop-color:rgb(98,110,119);stop-opacity:1"
         id="stop48" />
      <stop
         offset="1"
         style="stop-color:rgb(98,110,119);stop-opacity:1"
         id="stop50" />
    </linearGradient>
    <linearGradient
       id="common"
       x1="0"
       y1="1"
       x2="1"
       y2="0">
      <stop
         offset="0"
         style="stop-color:rgb(0,0,0);stop-opacity:1"
         id="stop53" />
    </linearGradient>
    <linearGradient
       id="rarity-outline"
       x1="0"
       y1="1"
       x2="0"
       y2="1">
      <stop
         offset="0"
         style="stop-color:rgb(0,0,0);stop-opacity:1"
         id="stop56" />
    </linearGradient>
  </defs>
  <path
     fill="url(#rarity-outline)"
     d="M 1.2896766,3.2139267 18.280301,26.586227 c 0.0049,0.0049 0.0099,0.01235 0.01482,0.01976 1.082142,1.502152 1.092025,2.910419 0.301418,4.266803 1.662744,-1.096966 4.555869,-2.910419 6.112376,-4.328569 L 9.7417525,5.1286765 c 0,-0.00247 -0.00247,-0.00494 -0.00494,-0.00741 -0.3038906,-0.45213 -0.489189,-1.0055544 -0.489189,-1.6825111 0,-0.9067266 0.2520058,-1.7393339 0.6893099,-2.3520538 0,0 1.4057966,0.088943 1.2526166,0.1902396 -0.602837,0.3928325 -0.914138,1.2353224 -0.914138,2.1618142 0,0.4422454 0.113649,0.8079009 0.313772,1.1043782 L 25.810826,26.324338 c 0.148239,0.210005 0.116121,0.49907 -0.07165,0.672016 -2.762181,2.564529 -6.97216,5.188354 -10.060466,6.776978 -0.239653,0.123533 -0.531189,0.03953 -0.674486,-0.190239 -0.138356,-0.22977 -0.07906,-0.528718 0.138356,-0.68684 2.515116,-1.810982 3.822087,-3.587376 2.324877,-5.677541 L 0.19518094,3.4955802 Z"
     id="path64" />
  <path
     fill="url(#rarity-outline)"
     d="M 8.6230469 0.00390625 C 7.5943322 0.030156851 6.4301832 0.19697908 5.2949219 0.46875 C 3.9706563 0.78499254 2.6876433 1.2329511 1.7265625 1.7246094 C 1.02737 2.0828529 0.49230739 2.4749894 0.19335938 2.8554688 L 0 3.0996094 L 0.12890625 3.3847656 C 3.4963951 10.890584 4.0492698 17.749452 1.6601562 23.943359 L 1.5449219 24.242188 L 1.7617188 24.478516 C 5.7048679 28.745319 10.02344 31.893976 14.685547 34.003906 L 14.898438 34.050781 L 14.6875 34.005859 L 15.060547 34.125 L 15.216797 34.052734 C 19.920905 31.942803 24.274732 28.779908 28.25 24.478516 L 28.466797 24.242188 L 28.351562 23.943359 C 25.962449 17.749454 26.515324 10.890584 29.882812 3.3847656 L 30.011719 3.0996094 L 29.818359 2.8554688 C 29.519411 2.4749894 28.982395 2.0828529 28.283203 1.7246094 C 27.322122 1.2329511 26.041062 0.78499254 24.716797 0.46875 C 22.448745 -0.07479185 20.055968 -0.2007772 18.875 0.38476562 L 18.068359 0.78320312 L 18.822266 1.2773438 C 19.425103 1.6701762 19.736328 2.5129613 19.736328 3.4394531 C 19.736328 4.53889 19.005067 5.143309 18.123047 5.4941406 C 17.110082 5.8968557 15.894355 5.9794337 15.083984 5.984375 L 15.001953 5.984375 C 14.208876 5.984375 12.971265 5.9119629 11.933594 5.5117188 C 11.031809 5.1633578 10.275391 4.5586552 10.275391 3.4394531 C 10.275391 2.5129613 10.586616 1.6701762 11.189453 1.2773438 L 11.943359 0.78320312 L 11.134766 0.38476562 C 10.544282 0.091994215 9.6517616 -0.022344351 8.6230469 0.00390625 z M 9.0996094 1.0175781 C 9.4010281 1.0249881 9.6830236 1.0464075 9.9375 1.0859375 C 9.5001959 1.6986574 9.2480469 2.5327265 9.2480469 3.4394531 C 9.2480469 4.7439536 9.9170244 5.5926594 10.863281 6.1386719 C 12.128251 6.8699827 13.921763 7.0136719 15.003906 7.0136719 L 15.089844 7.0136719 C 16.191752 7.0062619 17.954131 6.8490159 19.189453 6.1152344 C 20.113474 5.5692219 20.763672 4.7241884 20.763672 3.4394531 C 20.763672 2.5327265 20.511523 1.6986574 20.074219 1.0859375 C 20.328695 1.0464075 20.612644 1.0249901 20.914062 1.0175781 C 21.966558 0.99781292 23.240723 1.1722726 24.478516 1.46875 C 25.716309 1.7652274 26.915138 2.1786145 27.814453 2.640625 C 28.219639 2.8481592 28.562565 3.0599271 28.804688 3.2773438 C 26.473693 8.5815267 25.525947 13.573058 25.96875 18.246094 C 25.902177 18.272249 25.832612 18.287109 25.759766 18.287109 C 25.243401 18.287109 25.05474 18.065941 24.802734 17.816406 C 23.226463 16.250017 18.804688 12.330078 18.804688 12.330078 L 27.076172 23.414062 C 27.143805 23.613391 27.205974 23.813693 27.279297 24.011719 C 23.523917 28.021575 19.423371 30.999061 15.005859 33.017578 C 10.585875 31.001532 6.4872844 28.021575 2.734375 24.011719 C 3.467577 22.029415 3.914527 19.981394 4.0800781 17.869141 C 4.2857085 17.410935 4.5975129 16.943359 5.0136719 16.943359 C 5.5300367 16.943359 5.7167443 17.166481 5.96875 17.416016 C 7.5450214 18.982405 14.482422 26.349609 14.482422 26.349609 L 3.8339844 12.009766 C 3.4022643 9.1999932 2.5328188 6.2897323 1.2089844 3.2773438 C 1.4511076 3.0599271 1.7920799 2.8481592 2.1972656 2.640625 C 3.0965803 2.1786145 4.2973631 1.7652274 5.5351562 1.46875 C 6.7704786 1.1722726 8.0446441 0.99781297 9.0996094 1.0175781 z "
     id="path66" />
</svg>
