<?xml version="1.0" encoding="UTF-8" standalone="no"?>
<svg
   version="1.1"
   width="31.99262"
   height="14.034"
   viewBox="0 0 31.99262 14.034"
   id="svg4"
   xmlns="http://www.w3.org/2000/svg"
   xmlns:svg="http://www.w3.org/2000/svg">
  <defs
     id="defs59">
    <!-- This is the gradient that will actually be used on
     the cards. The colors themselves will be provided by the
     template, but the x values, y values, and offsets will be
     used from the SVG. -->
    <linearGradient
       id="rarity"
       x1="0"
       y1="1"
       x2="1"
       y2="0">
      <stop
         offset="0"
         style="stop-color:rgb(192,55,38);stop-opacity:1"
         id="stop2" />
      <stop
         offset="0.125"
         style="stop-color:rgb(192,55,38);stop-opacity:1"
         id="stop4" />
      <stop
         offset="0.5"
         style="stop-color:rgb(241,142,30);stop-opacity:1"
         id="stop6" />
      <stop
         offset="0.875"
         style="stop-color:rgb(192,55,38);stop-opacity:1"
         id="stop8" />
      <stop
         offset="1"
         style="stop-color:rgb(192,55,38);stop-opacity:1"
         id="stop10" />
    </linearGradient>
    <!-- These gradients are here so that you can visualize
     what the set symbol would like like in that rarity. The
     only gradient that matters in the end is the "rarity"
     gradient. -->
    <linearGradient
       id="mythic"
       x1="0"
       y1="1"
       x2="1"
       y2="0">
      <stop
         offset="0"
         style="stop-color:rgb(192,55,38);stop-opacity:1"
         id="stop9" />
      <stop
         offset="0.125"
         style="stop-color:rgb(192,55,38);stop-opacity:1"
         id="stop11" />
      <stop
         offset="0.5"
         style="stop-color:rgb(241,142,30);stop-opacity:1"
         id="stop13" />
      <stop
         offset="0.875"
         style="stop-color:rgb(192,55,38);stop-opacity:1"
         id="stop15" />
      <stop
         offset="1"
         style="stop-color:rgb(192,55,38);stop-opacity:1"
         id="stop17" />
    </linearGradient>
    <linearGradient
       id="rare"
       x1="0"
       y1="1"
       x2="1"
       y2="0">
      <stop
         offset="0"
         style="stop-color:rgb(146,116,67);stop-opacity:1"
         id="stop20" />
      <stop
         offset="0.125"
         style="stop-color:rgb(146,116,67);stop-opacity:1"
         id="stop22" />
      <stop
         offset="0.5"
         style="stop-color:rgb(211,178,108);stop-opacity:1"
         id="stop24" />
      <stop
         offset="0.875"
         style="stop-color:rgb(146,116,67);stop-opacity:1"
         id="stop26" />
      <stop
         offset="1"
         style="stop-color:rgb(146,116,67);stop-opacity:1"
         id="stop28" />
    </linearGradient>
    <linearGradient
       id="special"
       x1="0"
       y1="1"
       x2="1"
       y2="0">
      <stop
         offset="0"
         style="stop-color:rgb(76, 56, 106);stop-opacity:1"
         id="stop31" />
      <stop
         offset="0.125"
         style="stop-color:rgb(76, 56, 106);stop-opacity:1"
         id="stop33" />
      <stop
         offset="0.5"
         style="stop-color:rgb(201, 173, 221);stop-opacity:1"
         id="stop35" />
      <stop
         offset="0.875"
         style="stop-color:rgb(76, 56, 106);stop-opacity:1"
         id="stop37" />
      <stop
         offset="1"
         style="stop-color:rgb(76, 56, 106);stop-opacity:1"
         id="stop39" />
    </linearGradient>
    <linearGradient
       id="uncommon"
       x1="0"
       y1="1"
       x2="1"
       y2="0">
      <stop
         offset="0"
         style="stop-color:rgb(98,110,119);stop-opacity:1"
         id="stop42" />
      <stop
         offset="0.125"
         style="stop-color:rgb(98,110,119);stop-opacity:1"
         id="stop44" />
      <stop
         offset="0.5"
         style="stop-color:rgb(196,222,238);stop-opacity:1"
         id="stop46" />
      <stop
         offset="0.875"
         style="stop-color:rgb(98,110,119);stop-opacity:1"
         id="stop48" />
      <stop
         offset="1"
         style="stop-color:rgb(98,110,119);stop-opacity:1"
         id="stop50" />
    </linearGradient>
    <linearGradient
       id="common"
       x1="0"
       y1="1"
       x2="1"
       y2="0">
      <stop
         offset="0"
         style="stop-color:rgb(0,0,0);stop-opacity:1"
         id="stop53" />
    </linearGradient>
    <linearGradient
       id="rarity-outline"
       x1="-3.5074093e-10"
       y1="21.189253"
       x2="-3.5074093e-10"
       y2="21.189253"
       gradientTransform="scale(1.5098513,0.66231688)"
       gradientUnits="userSpaceOnUse">
      <stop
         offset="0"
         style="stop-color:rgb(0,0,0);stop-opacity:1"
         id="stop56" />
    </linearGradient>
  </defs>
  <path
     id="path61"
     style="fill:url(#rarity-outline)"
     d="M 31.992188 0.001953125 C 31.986919 0.0083491193 27.86369 5.0097656 22.152344 5.0097656 C 16.437344 5.0097656 13.375 3.0058594 13.375 3.0058594 L 8.7773438 3.0058594 L 8.7773438 1.2480469 C 8.7773438 0.85504687 8.4726562 0.88671875 8.4726562 0.88671875 L 7.2558594 0.88671875 C 7.2558594 0.88671875 7.1274688 0.17773438 6.4804688 0.17773438 C 5.8314687 0.17773438 5.5957031 0.913875 5.5957031 1.296875 C 5.5957031 1.679875 5.7708125 2.5332031 6.5078125 2.5332031 C 7.2448125 2.5332031 7.3046875 1.5332031 7.3046875 1.5332031 L 7.9277344 1.5332031 C 7.9277344 1.5332031 8.0410156 1.5466875 8.0410156 1.6796875 L 8.0410156 2.7714844 L 7.8359375 3.0351562 L 3.2988281 3.0351562 L 3.1503906 2.859375 L 3.1503906 2.09375 C 3.1503906 2.09375 2.6803906 1.67975 2.1503906 2.09375 L 2.1503906 2.7128906 C 2.1503906 2.6948906 1.842125 2.7499531 1.828125 2.7519531 C 1.315125 2.8739531 0.84945313 3.1661406 0.56445312 3.6191406 C 0.45145313 3.7981406 0.3655 4.0020781 0.3125 4.2050781 C 0.2145 4.5650781 0.1935 4.9492656 0.1875 5.3222656 C 0.1815 5.7152656 0.21909375 6.1154219 0.37109375 6.4824219 C 0.42209375 6.6004219 0.47859375 6.7145 0.55859375 6.8125 C 0.61259375 6.8775 0.6969375 6.9334844 0.7109375 7.0214844 C 0.7229375 7.1034844 0.67395313 7.1791875 0.62695312 7.2421875 C 0.52495313 7.3751875 0.4458125 7.517875 0.3828125 7.671875 C 0.2088125 8.085875 0.14648438 8.5393281 0.14648438 8.9863281 C 0.14648438 10.401328 0.8828125 11.048828 0.8828125 11.048828 C 0.8828125 11.048828 0.044953125 11.638078 0.001953125 12.705078 C -0.041046875 13.782078 0.78515625 14.033203 0.78515625 14.033203 C 0.78515625 14.033203 0.12048433 12.791125 1.1464844 11.703125 C 1.3144844 11.525125 1.4751562 11.334828 1.6601562 11.173828 C 1.8421563 11.013828 2.0197656 10.853719 2.1347656 10.636719 C 2.2597656 10.400719 2.3107031 10.125281 2.3457031 9.8632812 C 2.3767031 9.6222812 2.3867188 9.3748125 2.3867188 9.1328125 C 2.3867188 8.7918125 2.3499531 8.4452344 2.2519531 8.1152344 C 2.1639531 7.8182344 2.0223594 7.531875 1.8183594 7.296875 C 1.7563594 7.226875 1.687375 7.1487031 1.609375 7.0957031 C 1.499375 7.0227031 1.4176563 6.9672656 1.4726562 6.8222656 C 1.5646562 6.5762656 1.7384531 6.3672344 1.8144531 6.1152344 C 1.8934531 5.8572344 1.8949219 5.5882656 1.9199219 5.3222656 C 1.9229219 5.2892656 1.9633125 4.8320312 1.9453125 4.8320312 L 2.2402344 4.8320312 C 2.2402344 4.8320312 2.3571563 5.7460938 3.0351562 5.7460938 L 3.4765625 5.7460938 L 3.4765625 4.8613281 L 7.8378906 4.8613281 L 8.0136719 5.0683594 L 8.0136719 6.78125 C 8.0136719 6.78125 7.9883594 7.1015625 8.3183594 7.1015625 L 10.027344 7.1015625 C 10.027344 7.1015625 10.134766 7.0858906 10.134766 7.2128906 L 10.134766 8.0449219 C 10.134766 8.0449219 9.6336871 9.4570312 10.429688 9.4570312 C 11.224688 9.4570313 10.726562 8.1015625 10.726562 8.1015625 L 10.726562 6.8144531 C 10.726563 6.5194531 10.441406 6.5117188 10.441406 6.5117188 L 8.8535156 6.5117188 C 8.7355156 6.5117187 8.7519531 6.3984375 8.7519531 6.3984375 L 8.7519531 4.9785156 L 8.9140625 4.8164062 L 11.695312 4.8164062 C 11.695312 4.8164063 14.789375 7.1874844 21.859375 7.8964844 C 21.859375 7.8964844 21.428359 7.5236563 21.193359 6.9726562 C 21.193359 6.9726563 22.007094 7.6891875 23.746094 7.7421875 C 24.329094 7.7611875 25.252328 7.6217188 26.611328 7.0117188 C 26.611328 7.0117188 26.062047 6.8962188 25.748047 6.6992188 C 25.748047 6.6992187 27.555484 6.7207344 28.771484 5.6777344 C 28.771484 5.6777344 28.262203 5.7543438 27.908203 5.4023438 C 27.908203 5.4023437 28.968078 5.7375156 30.580078 3.9785156 L 29.892578 3.9980469 C 31.620578 2.4270469 31.992188 0.001953125 31.992188 0.001953125 z M 6.4824219 0.56054688 C 6.4824219 0.56054687 6.9238281 0.64817187 6.9238281 1.3261719 C 6.9238281 2.0041719 6.4824219 2.1210938 6.4824219 2.1210938 C 6.4824219 2.1210938 6.0097656 2.0341719 6.0097656 1.3261719 C 6.0097656 0.61917187 6.4824219 0.56054688 6.4824219 0.56054688 z M 30.951172 1.7109375 C 30.650241 2.3609132 30.217871 3.0743904 29.578125 3.65625 L 28.652344 4.4960938 C 28.652344 4.4960938 28.984453 4.4875625 29.314453 4.4765625 C 28.898453 4.7655625 28.56675 4.8846875 28.34375 4.9296875 C 28.34375 4.9296875 27.849969 5.0270469 27.417969 4.9980469 C 27.417969 4.9980469 27.339969 5.5472969 27.667969 5.7792969 L 27.681641 5.8105469 C 26.757641 6.2255469 25.791 6.2363281 25.75 6.2363281 C 25.748 6.2363281 24.630859 6.28125 24.630859 6.28125 C 24.630859 6.28125 25.111563 6.8510469 25.351562 6.9980469 C 24.620563 7.2320469 24.089859 7.2932031 23.755859 7.2832031 C 22.885859 7.2552031 22.28725 7.0160937 21.90625 6.8710938 C 21.36125 6.6620937 20.716797 6.28125 20.716797 6.28125 C 20.589797 6.91625 20.835938 7.2910156 20.835938 7.2910156 C 15.137937 6.5380156 12.351812 4.6875625 12.007812 4.4765625 C 11.624813 4.2415625 11.261719 3.9140625 11.261719 3.9140625 L 10.654297 3.9140625 L 10.654297 3.4707031 L 13.244141 3.4707031 C 13.732141 3.7637031 16.006844 5.0050938 19.964844 5.3710938 L 20.013672 5.375 C 20.681672 5.436 21.390344 5.4726562 22.152344 5.4726562 C 23.719344 5.4726562 25.159453 5.1118438 26.439453 4.5898438 L 26.470703 4.5761719 C 28.387261 3.7861786 29.927161 2.629377 30.951172 1.7109375 z M 8.5136719 3.2109375 L 8.5136719 4.7441406 L 8.0722656 4.4785156 L 8.0722656 3.4765625 L 8.5136719 3.2109375 z M 1.1191406 3.9765625 C 1.4141406 3.9765625 1.4726562 4.5661094 1.4726562 5.0371094 C 1.4726562 5.5101094 1.3538438 6.5410156 1.0898438 6.5410156 C 0.8238437 6.5410156 0.6484375 5.9516563 0.6484375 5.0976562 C 0.6484375 4.2436563 1.1191406 3.9765625 1.1191406 3.9765625 z M 1.2089844 7.5410156 C 1.7379844 7.5410156 1.8847656 8.8377344 1.8847656 9.4277344 C 1.8847656 10.017734 1.620875 10.634766 1.296875 10.634766 C 0.97187495 10.634766 0.67578125 9.7507031 0.67578125 8.7207031 C 0.67578125 7.6887031 1.2089844 7.5429688 1.2089844 7.5429688 L 1.2089844 7.5410156 z " />
</svg>
