<?xml version="1.0" encoding="UTF-8" standalone="no"?>
<svg
   version="1.1"
   width="20.3113"
   height="30.025734"
   viewBox="0 0 20.3113 30.025734"
   id="svg4"
   sodipodi:docname="ody.svg"
   inkscape:version="1.1.1 (3bf5ae0d25, 2021-09-20)"
   xmlns:inkscape="http://www.inkscape.org/namespaces/inkscape"
   xmlns:sodipodi="http://sodipodi.sourceforge.net/DTD/sodipodi-0.dtd"
   xmlns="http://www.w3.org/2000/svg"
   xmlns:svg="http://www.w3.org/2000/svg">
  <sodipodi:namedview
     id="namedview66"
     pagecolor="#ffffff"
     bordercolor="#666666"
     borderopacity="1.0"
     inkscape:pageshadow="2"
     inkscape:pageopacity="0.0"
     inkscape:pagecheckerboard="0"
     showgrid="false"
     inkscape:zoom="27.443126"
     inkscape:cx="10.148261"
     inkscape:cy="15.031086"
     inkscape:window-width="1920"
     inkscape:window-height="1009"
     inkscape:window-x="-8"
     inkscape:window-y="-8"
     inkscape:window-maximized="1"
     inkscape:current-layer="svg4" />
  <defs
     id="defs59">
    <!-- This is the gradient that will actually be used on
     the cards. The colors themselves will be provided by the
     template, but the x values, y values, and offsets will be
     used from the SVG. -->
    <linearGradient
       id="rarity"
       x1="0"
       y1="1"
       x2="1"
       y2="0">
      <stop
         offset="0"
         style="stop-color:rgb(192,55,38);stop-opacity:1"
         id="stop2" />
      <stop
         offset="0.125"
         style="stop-color:rgb(192,55,38);stop-opacity:1"
         id="stop4" />
      <stop
         offset="0.5"
         style="stop-color:rgb(241,142,30);stop-opacity:1"
         id="stop6" />
      <stop
         offset="0.875"
         style="stop-color:rgb(192,55,38);stop-opacity:1"
         id="stop8" />
      <stop
         offset="1"
         style="stop-color:rgb(192,55,38);stop-opacity:1"
         id="stop10" />
    </linearGradient>
    <!-- These gradients are here so that you can visualize
     what the set symbol would like like in that rarity. The
     only gradient that matters in the end is the "rarity"
     gradient. -->
    <linearGradient
       id="mythic"
       x1="0"
       y1="1"
       x2="1"
       y2="0">
      <stop
         offset="0"
         style="stop-color:rgb(192,55,38);stop-opacity:1"
         id="stop9" />
      <stop
         offset="0.125"
         style="stop-color:rgb(192,55,38);stop-opacity:1"
         id="stop11" />
      <stop
         offset="0.5"
         style="stop-color:rgb(241,142,30);stop-opacity:1"
         id="stop13" />
      <stop
         offset="0.875"
         style="stop-color:rgb(192,55,38);stop-opacity:1"
         id="stop15" />
      <stop
         offset="1"
         style="stop-color:rgb(192,55,38);stop-opacity:1"
         id="stop17" />
    </linearGradient>
    <linearGradient
       id="rare"
       x1="0"
       y1="1"
       x2="1"
       y2="0">
      <stop
         offset="0"
         style="stop-color:rgb(146,116,67);stop-opacity:1"
         id="stop20" />
      <stop
         offset="0.125"
         style="stop-color:rgb(146,116,67);stop-opacity:1"
         id="stop22" />
      <stop
         offset="0.5"
         style="stop-color:rgb(211,178,108);stop-opacity:1"
         id="stop24" />
      <stop
         offset="0.875"
         style="stop-color:rgb(146,116,67);stop-opacity:1"
         id="stop26" />
      <stop
         offset="1"
         style="stop-color:rgb(146,116,67);stop-opacity:1"
         id="stop28" />
    </linearGradient>
    <linearGradient
       id="special"
       x1="0"
       y1="1"
       x2="1"
       y2="0">
      <stop
         offset="0"
         style="stop-color:rgb(76, 56, 106);stop-opacity:1"
         id="stop31" />
      <stop
         offset="0.125"
         style="stop-color:rgb(76, 56, 106);stop-opacity:1"
         id="stop33" />
      <stop
         offset="0.5"
         style="stop-color:rgb(201, 173, 221);stop-opacity:1"
         id="stop35" />
      <stop
         offset="0.875"
         style="stop-color:rgb(76, 56, 106);stop-opacity:1"
         id="stop37" />
      <stop
         offset="1"
         style="stop-color:rgb(76, 56, 106);stop-opacity:1"
         id="stop39" />
    </linearGradient>
    <linearGradient
       id="uncommon"
       x1="0"
       y1="1"
       x2="1"
       y2="0">
      <stop
         offset="0"
         style="stop-color:rgb(98,110,119);stop-opacity:1"
         id="stop42" />
      <stop
         offset="0.125"
         style="stop-color:rgb(98,110,119);stop-opacity:1"
         id="stop44" />
      <stop
         offset="0.5"
         style="stop-color:rgb(196,222,238);stop-opacity:1"
         id="stop46" />
      <stop
         offset="0.875"
         style="stop-color:rgb(98,110,119);stop-opacity:1"
         id="stop48" />
      <stop
         offset="1"
         style="stop-color:rgb(98,110,119);stop-opacity:1"
         id="stop50" />
    </linearGradient>
    <linearGradient
       id="common"
       x1="0"
       y1="1"
       x2="1"
       y2="0">
      <stop
         offset="0"
         style="stop-color:rgb(0,0,0);stop-opacity:1"
         id="stop53" />
    </linearGradient>
    <linearGradient
       id="rarity-outline"
       x1="-3.5374723e-06"
       y1="24.69538"
       x2="-3.5374723e-06"
       y2="24.69538"
       gradientTransform="scale(0.8224738,1.2158442)"
       gradientUnits="userSpaceOnUse">
      <stop
         offset="0"
         style="stop-color:rgb(0,0,0);stop-opacity:1"
         id="stop56" />
    </linearGradient>
  </defs>
  <path
     id="path61"
     style="fill:url(#rarity-outline)"
     d="M 10.974609 0 C 6.1219528 0 2.1660157 3.957219 2.1660156 8.8125 C 2.1660156 11.030098 2.9077868 12.515131 3.3515625 13.292969 C 3.0560282 13.566137 2.785891 13.791974 2.4296875 14.214844 C 2.1568749 14.538716 1.8943196 14.904999 1.7285156 15.367188 C 1.5627116 15.829375 1.5245882 16.43792 1.7734375 16.980469 L 1.7734375 16.982422 L 1.7753906 16.986328 C 2.1569523 17.803285 2.8393463 18.082256 3.2109375 18.28125 L 3.2148438 18.283203 L 3.2207031 18.285156 C 3.5416587 18.452587 3.784278 18.570561 3.9179688 18.666016 C 4.0506129 18.760726 4.0855054 18.797273 4.1386719 18.935547 C 4.2547627 19.242241 4.2120407 19.369578 4.1992188 19.515625 C 2.9614095 20.559401 1.3849115 21.329499 0.30664062 23.277344 L 0.3046875 23.277344 C -0.18129205 24.156395 -0.028384405 25.162997 0.36523438 25.705078 C 0.40936298 25.765848 0.43479848 25.743162 0.47851562 25.794922 C 0.46425542 25.827742 0.45672347 25.817302 0.44335938 25.851562 C 0.21704283 26.431722 0.12717911 27.345242 0.61523438 28.205078 C 1.0628158 28.993292 2.0795381 29.396219 3.296875 29.328125 C 6.3946389 29.160114 7.2617187 29.1875 7.2617188 29.1875 L 7.2636719 29.1875 L 7.2675781 29.1875 C 8.7238806 29.22248 10.032394 29.087285 11.298828 29.162109 L 11.300781 29.162109 C 12.096098 29.207529 12.924857 29.372527 13.71875 29.615234 C 13.79029 29.637044 14.314348 29.840344 14.857422 29.951172 C 15.128959 30.006582 15.420178 30.053916 15.78125 30.005859 C 16.141899 29.957849 16.674708 29.72569 16.921875 29.232422 L 16.923828 29.232422 C 17.000198 29.083577 17.065584 28.948279 17.125 28.832031 L 17.224609 28.636719 C 17.669424 28.496427 18.065256 28.241445 18.351562 27.9375 C 18.912456 27.34205 19.253674 26.583246 19.208984 25.732422 L 19.208984 25.728516 L 19.208984 25.726562 C 19.193174 25.451283 19.103391 25.315109 19.035156 25.130859 C 19.292168 24.888407 19.465051 24.630574 19.585938 24.457031 L 19.585938 24.455078 C 20.183446 23.597777 20.446522 22.543697 20.244141 21.519531 C 20.041642 20.494772 19.282281 19.520464 18.109375 19.099609 C 17.845933 19.005059 17.615482 19.105606 17.359375 19.072266 C 17.686259 18.836326 18.00571 18.668027 18.308594 18.291016 L 18.310547 18.289062 C 18.664605 17.845841 18.850318 17.347138 18.970703 16.820312 C 19.091089 16.293488 19.14698 15.755498 18.990234 15.177734 L 18.990234 15.175781 L 18.990234 15.173828 C 18.76112 14.338914 18.213083 13.759005 17.550781 13.337891 C 18.018253 12.962103 19.785156 11.452083 19.785156 8.8125 C 19.785156 3.957837 15.832514 0 10.974609 0 z M 10.974609 1 C 15.292609 1 18.785156 4.4975 18.785156 8.8125 C 18.785156 11.2115 16.640625 12.849609 16.640625 12.849609 C 14.851625 12.299609 13.456891 12.626781 12.337891 13.300781 C 10.305891 14.523781 9.8085937 16.535156 9.8085938 16.535156 C 8.2325937 16.297156 6.4957031 15.437109 5.4707031 14.412109 C 5.4707031 14.412109 4.2414869 15.550753 4.1542969 15.740234 C 4.1542969 15.740234 4.1542969 15.742188 4.1542969 15.742188 C 3.7626626 16.609215 4.8509597 16.509486 5.3925781 16.822266 C 5.7475781 17.026266 6.0734844 17.273141 6.2714844 17.619141 C 6.5024844 18.025141 6.8689219 18.77525 6.9199219 19.15625 C 6.9199219 19.15625 8.1691406 18.749719 8.7441406 17.261719 C 8.7441406 17.261719 10.736422 17.407844 11.482422 17.214844 C 12.225422 17.022844 12.679688 16.707031 12.679688 16.707031 C 11.791688 16.755031 10.857422 16.587891 10.857422 16.587891 C 10.857422 16.587891 11.409859 15.244766 12.380859 14.384766 C 13.886859 13.055766 17.447391 13.329453 18.025391 15.439453 C 18.197391 16.073453 17.938297 17.152062 17.529297 17.664062 C 17.149297 18.137062 16.605422 18.4785 16.107422 18.8125 C 15.028422 19.5305 13.875906 19.922281 12.628906 20.238281 C 11.122906 20.623281 9.1542969 20.527344 9.1542969 20.527344 C 9.1542969 20.527344 7.1361094 21.485609 5.2871094 22.099609 C 4.1721094 22.466609 3.3360312 23.345141 2.9570312 24.494141 C 3.0260312 24.494141 5.3579062 22.39725 8.8789062 22.65625 C 9.6969062 22.71625 10.552328 22.859641 11.361328 22.681641 C 13.331328 22.254641 13.531969 21.050922 14.292969 20.669922 C 15.347969 20.143922 16.582531 19.615016 17.769531 20.041016 C 19.522531 20.670016 19.667625 22.591766 18.765625 23.884766 C 18.558625 24.181766 18.227922 24.608078 17.794922 24.705078 C 17.794922 24.705078 18.184984 25.365203 18.208984 25.783203 C 18.260984 26.773203 17.268594 28.072406 16.183594 27.691406 C 15.551594 27.465406 15.295359 26.623391 15.443359 26.025391 C 15.530359 25.676391 15.719359 25.465 16.068359 25.375 C 16.880359 25.17 17.316406 25.759766 17.316406 25.759766 C 17.220406 25.089766 17.428297 24.401937 16.029297 24.085938 C 14.721297 23.790937 13.966719 24.371188 13.136719 24.367188 C 11.887719 24.365188 11.12225 24.366172 9.78125 24.201172 C 8.37425 24.023172 6.3206094 24.414125 5.5996094 24.703125 C 5.1336094 24.889125 4.2529844 25.268328 4.0839844 25.861328 C 3.7109844 27.169328 6.5354844 26.033172 6.8964844 25.951172 C 8.4654844 25.605172 9.9437347 25.582406 11.552734 25.566406 C 12.400734 25.560406 13.473453 25.616703 14.189453 25.720703 C 14.288453 27.491703 14.865422 27.921953 16.232422 28.376953 C 16.163422 28.511953 16.099297 28.649156 16.029297 28.785156 C 15.753297 29.338156 14.383766 28.772203 14.009766 28.658203 C 13.152766 28.396203 12.250422 28.213109 11.357422 28.162109 C 9.9864222 28.081109 8.6650156 28.2205 7.2910156 28.1875 C 7.2910156 28.1875 6.3582344 28.159125 3.2402344 28.328125 C 2.2212344 28.385125 1.710375 28.110891 1.484375 27.712891 C 0.82537505 26.551891 1.7578125 25.587891 1.7578125 25.587891 C 1.6498125 25.542891 0.49968755 24.991719 1.1796875 23.761719 C 2.1716875 21.969719 3.7761719 21.335 5.2011719 20 C 5.2011719 20 5.3562188 19.325078 5.0742188 18.580078 C 4.8182187 17.910078 4.2586406 17.699437 3.6816406 17.398438 C 3.3156406 17.202437 2.8656406 16.9565 2.6816406 16.5625 C 2.1656406 15.4375 3.9342187 14.172375 4.5742188 13.484375 C 4.5742188 13.484375 3.1660156 11.4035 3.1660156 8.8125 C 3.1660156 4.4975 6.6626097 1 10.974609 1 z " />
</svg>
