<?xml version="1.0" encoding="UTF-8" standalone="no"?>
<svg
   version="1.1"
   width="31.999001"
   height="21.636"
   viewBox="0 0 31.999001 21.636"
   id="svg4"
   sodipodi:docname="mh2.svg"
   inkscape:version="1.1.1 (3bf5ae0d25, 2021-09-20)"
   xmlns:inkscape="http://www.inkscape.org/namespaces/inkscape"
   xmlns:sodipodi="http://sodipodi.sourceforge.net/DTD/sodipodi-0.dtd"
   xmlns="http://www.w3.org/2000/svg"
   xmlns:svg="http://www.w3.org/2000/svg">
  <sodipodi:namedview
     id="namedview66"
     pagecolor="#ffffff"
     bordercolor="#666666"
     borderopacity="1.0"
     inkscape:pageshadow="2"
     inkscape:pageopacity="0.0"
     inkscape:pagecheckerboard="0"
     showgrid="false"
     inkscape:zoom="29.999637"
     inkscape:cx="15.983527"
     inkscape:cy="10.816798"
     inkscape:window-width="1920"
     inkscape:window-height="1009"
     inkscape:window-x="-8"
     inkscape:window-y="-8"
     inkscape:window-maximized="1"
     inkscape:current-layer="svg4" />
  <defs
     id="defs59">
    <!-- This is the gradient that will actually be used on
     the cards. The colors themselves will be provided by the
     template, but the x values, y values, and offsets will be
     used from the SVG. -->
    <linearGradient
       id="rarity"
       x1="1.3436456"
       y1="1.3436451"
       x2="27.655817"
       y2="1.3436451"
       gradientTransform="matrix(1.2161292,0,0,0.82228105,-1.6340467,-1.1048539)"
       gradientUnits="userSpaceOnUse">
      <stop
         offset="0"
         style="stop-color:rgb(192,55,38);stop-opacity:1"
         id="stop2" />
      <stop
         offset="0.125"
         style="stop-color:rgb(192,55,38);stop-opacity:1"
         id="stop4" />
      <stop
         offset="0.5"
         style="stop-color:rgb(241,142,30);stop-opacity:1"
         id="stop6" />
      <stop
         offset="0.875"
         style="stop-color:rgb(192,55,38);stop-opacity:1"
         id="stop8" />
      <stop
         offset="1"
         style="stop-color:rgb(192,55,38);stop-opacity:1"
         id="stop10" />
    </linearGradient>
    <!-- These gradients are here so that you can visualize
     what the set symbol would like like in that rarity. The
     only gradient that matters in the end is the "rarity"
     gradient. -->
    <linearGradient
       id="mythic"
       x1="0"
       y1="1"
       x2="1"
       y2="0">
      <stop
         offset="0"
         style="stop-color:rgb(192,55,38);stop-opacity:1"
         id="stop9" />
      <stop
         offset="0.125"
         style="stop-color:rgb(192,55,38);stop-opacity:1"
         id="stop11" />
      <stop
         offset="0.5"
         style="stop-color:rgb(241,142,30);stop-opacity:1"
         id="stop13" />
      <stop
         offset="0.875"
         style="stop-color:rgb(192,55,38);stop-opacity:1"
         id="stop15" />
      <stop
         offset="1"
         style="stop-color:rgb(192,55,38);stop-opacity:1"
         id="stop17" />
    </linearGradient>
    <linearGradient
       id="rare"
       x1="0"
       y1="1"
       x2="1"
       y2="0">
      <stop
         offset="0"
         style="stop-color:rgb(146,116,67);stop-opacity:1"
         id="stop20" />
      <stop
         offset="0.125"
         style="stop-color:rgb(146,116,67);stop-opacity:1"
         id="stop22" />
      <stop
         offset="0.5"
         style="stop-color:rgb(211,178,108);stop-opacity:1"
         id="stop24" />
      <stop
         offset="0.875"
         style="stop-color:rgb(146,116,67);stop-opacity:1"
         id="stop26" />
      <stop
         offset="1"
         style="stop-color:rgb(146,116,67);stop-opacity:1"
         id="stop28" />
    </linearGradient>
    <linearGradient
       id="special"
       x1="0"
       y1="1"
       x2="1"
       y2="0">
      <stop
         offset="0"
         style="stop-color:rgb(76, 56, 106);stop-opacity:1"
         id="stop31" />
      <stop
         offset="0.125"
         style="stop-color:rgb(76, 56, 106);stop-opacity:1"
         id="stop33" />
      <stop
         offset="0.5"
         style="stop-color:rgb(201, 173, 221);stop-opacity:1"
         id="stop35" />
      <stop
         offset="0.875"
         style="stop-color:rgb(76, 56, 106);stop-opacity:1"
         id="stop37" />
      <stop
         offset="1"
         style="stop-color:rgb(76, 56, 106);stop-opacity:1"
         id="stop39" />
    </linearGradient>
    <linearGradient
       id="uncommon"
       x1="0"
       y1="1"
       x2="1"
       y2="0">
      <stop
         offset="0"
         style="stop-color:rgb(98,110,119);stop-opacity:1"
         id="stop42" />
      <stop
         offset="0.125"
         style="stop-color:rgb(98,110,119);stop-opacity:1"
         id="stop44" />
      <stop
         offset="0.5"
         style="stop-color:rgb(196,222,238);stop-opacity:1"
         id="stop46" />
      <stop
         offset="0.875"
         style="stop-color:rgb(98,110,119);stop-opacity:1"
         id="stop48" />
      <stop
         offset="1"
         style="stop-color:rgb(98,110,119);stop-opacity:1"
         id="stop50" />
    </linearGradient>
    <linearGradient
       id="common"
       x1="0"
       y1="1"
       x2="1"
       y2="0">
      <stop
         offset="0"
         style="stop-color:rgb(0,0,0);stop-opacity:1"
         id="stop53" />
    </linearGradient>
    <linearGradient
       id="rarity-outline"
       x1="0"
       y1="1"
       x2="0"
       y2="1">
      <stop
         offset="0"
         style="stop-color:rgb(0,0,0);stop-opacity:1"
         id="stop56" />
    </linearGradient>
  </defs>
  <path
     fill="url(#rarity)"
     d="M 1.998,9.7010001 C 3.629,8.696 5.305,7.759 6.877,6.66 7.088,7.39 7.197,8.156 7.532,8.847 7.837,9.5510001 8.288,10.174 8.7160003,10.808 8.3970003,11.374 7.949,11.856 7.659,12.44 7.247,13.201 7.024,14.051 6.979,14.914 6.967,14.911 6.954,14.909 6.944,14.902 3.773,12.966 2.284,12.117 0.732,11.232 0.515,11.106 0.195,10.967 0,10.809 0.644,10.401 1.344,10.092 1.999,9.7010001 Z m 10.498,-0.319 v 0 c -0.66,0.192 -1.219,0.606 -1.746,1.0319999 -1.5159997,1.251 -2.535,3.142 -2.624,5.116 -0.006,0.101 -0.011,0.205 0.013,0.304 l 0.5070003,0.369 0.069,0.045 C 11.051,17.839 13.228,19.454 15.411,21.249 c 0.179,0.122 0.333,0.289 0.564,0.384 0.006,0.003 0.014,0.002 0.021,0.003 0.012,-0.003 0.025,-0.005 0.035,-0.011 0.223,-0.128 0.449,-0.352 0.663,-0.513 2.129,-1.809 4.403,-3.444 6.704,-5.025 0.129,-0.102 0.083,-0.062 0.145,-0.116 l 0.341,-0.261 -0.005,-0.293 c -0.043,-1.395 -0.594,-2.757 -1.439,-3.858 -0.198,0.134 -0.396,0.269 -0.581,0.419 -1.076,0.877 -2.107,1.518 -3.396,2.025 -0.576,0.226 -1.343,0.43 -2.46,0.457 -2.03,0 -3.675,-1.645 -3.675,-3.675 0.025,-0.488 -0.006,-0.253 0.086,-0.707 0.04,-0.4369999 0.014,-0.2039999 0.082,-0.6979999 z M 30,9.7370001 C 30.655,10.128 31.355,10.437 31.999,10.845 c -0.194,0.158 -0.514,0.297 -0.732,0.423 -1.553,0.886 -3.042,1.735 -6.212,3.67 -0.01,0.006 -0.023,0.008 -0.035,0.012 -0.045,-0.863 -0.269,-1.713 -0.68,-2.474 -0.29,-0.584 -0.738,-1.067 -1.057,-1.632 0.428,-0.634 0.878,-1.2569999 1.184,-1.961 0.32,-0.66 0.532,-1.512 0.538,-2.215 0,-0.038 -0.006,-0.012 0.004,-0.044 1.572,1.098 3.362,2.107 4.992,3.1130001 z M 19.431,12.254 v 0 c 0.66,-0.192 1.219,-0.606 1.746,-1.032 C 22.693,9.9710001 23.712,8.08 23.801,6.106 23.807,6.005 23.812,5.901 23.788,5.802 L 23.281,5.433 23.212,5.388 C 20.876,3.797 18.699,2.182 16.516,0.387 16.337,0.265 16.183,0.098 15.952,0.003 15.946,0 15.938,10e-4 15.931,0 15.919,0.003 15.906,0.005 15.896,0.011 15.673,0.139 15.447,0.363 15.233,0.524 13.104,2.333 10.83,3.968 8.5290003,5.549 c -0.13,0.102 -0.083,0.062 -0.145,0.117 L 8.043,5.927 8.048,6.22 c 0.043,1.395 0.5940003,2.7570001 1.4390003,3.858 0.198,-0.1339999 0.396,-0.2689999 0.5819997,-0.4189999 C 11.145,8.782 12.176,8.141 13.465,7.634 c 0.575,-0.226 1.342,-0.43 2.46,-0.457 2.03,0 3.675,1.646 3.675,3.675 -0.025,0.488 0.006,0.253 -0.087,0.707 -0.04,0.437 -0.014,0.204 -0.082,0.698 z"
     id="path63"
     style="fill:url(#rarity)" />
</svg>
