<?xml version="1.0" encoding="UTF-8" standalone="no"?>
<svg
   version="1.1"
   width="32.001999"
   height="29.192318"
   viewBox="0 0 32.001999 29.192318"
   id="svg4"
   sodipodi:docname="mir.svg"
   inkscape:version="1.1.1 (3bf5ae0d25, 2021-09-20)"
   xmlns:inkscape="http://www.inkscape.org/namespaces/inkscape"
   xmlns:sodipodi="http://sodipodi.sourceforge.net/DTD/sodipodi-0.dtd"
   xmlns="http://www.w3.org/2000/svg"
   xmlns:svg="http://www.w3.org/2000/svg">
  <sodipodi:namedview
     id="namedview66"
     pagecolor="#ffffff"
     bordercolor="#666666"
     borderopacity="1.0"
     inkscape:pageshadow="2"
     inkscape:pageopacity="0.0"
     inkscape:pagecheckerboard="0"
     showgrid="false"
     inkscape:zoom="26.638663"
     inkscape:cx="16.010563"
     inkscape:cy="14.621605"
     inkscape:window-width="1920"
     inkscape:window-height="1009"
     inkscape:window-x="-8"
     inkscape:window-y="-8"
     inkscape:window-maximized="1"
     inkscape:current-layer="svg4" />
  <defs
     id="defs59">
    <!-- This is the gradient that will actually be used on
     the cards. The colors themselves will be provided by the
     template, but the x values, y values, and offsets will be
     used from the SVG. -->
    <linearGradient
       id="rarity"
       x1="0.8354901"
       y1="31.480877"
       x2="31.400381"
       y2="0.91598615"
       gradientTransform="matrix(1.0470183,0,0,0.95509316,-0.87477341,-0.87485211)"
       gradientUnits="userSpaceOnUse">
      <stop
         offset="0"
         style="stop-color:rgb(192,55,38);stop-opacity:1"
         id="stop2" />
      <stop
         offset="0.125"
         style="stop-color:rgb(192,55,38);stop-opacity:1"
         id="stop4" />
      <stop
         offset="0.5"
         style="stop-color:rgb(241,142,30);stop-opacity:1"
         id="stop6" />
      <stop
         offset="0.875"
         style="stop-color:rgb(192,55,38);stop-opacity:1"
         id="stop8" />
      <stop
         offset="1"
         style="stop-color:rgb(192,55,38);stop-opacity:1"
         id="stop10" />
    </linearGradient>
    <!-- These gradients are here so that you can visualize
     what the set symbol would like like in that rarity. The
     only gradient that matters in the end is the "rarity"
     gradient. -->
    <linearGradient
       id="mythic"
       x1="0"
       y1="1"
       x2="1"
       y2="0">
      <stop
         offset="0"
         style="stop-color:rgb(192,55,38);stop-opacity:1"
         id="stop9" />
      <stop
         offset="0.125"
         style="stop-color:rgb(192,55,38);stop-opacity:1"
         id="stop11" />
      <stop
         offset="0.5"
         style="stop-color:rgb(241,142,30);stop-opacity:1"
         id="stop13" />
      <stop
         offset="0.875"
         style="stop-color:rgb(192,55,38);stop-opacity:1"
         id="stop15" />
      <stop
         offset="1"
         style="stop-color:rgb(192,55,38);stop-opacity:1"
         id="stop17" />
    </linearGradient>
    <linearGradient
       id="rare"
       x1="0"
       y1="1"
       x2="1"
       y2="0">
      <stop
         offset="0"
         style="stop-color:rgb(146,116,67);stop-opacity:1"
         id="stop20" />
      <stop
         offset="0.125"
         style="stop-color:rgb(146,116,67);stop-opacity:1"
         id="stop22" />
      <stop
         offset="0.5"
         style="stop-color:rgb(211,178,108);stop-opacity:1"
         id="stop24" />
      <stop
         offset="0.875"
         style="stop-color:rgb(146,116,67);stop-opacity:1"
         id="stop26" />
      <stop
         offset="1"
         style="stop-color:rgb(146,116,67);stop-opacity:1"
         id="stop28" />
    </linearGradient>
    <linearGradient
       id="special"
       x1="0"
       y1="1"
       x2="1"
       y2="0">
      <stop
         offset="0"
         style="stop-color:rgb(76, 56, 106);stop-opacity:1"
         id="stop31" />
      <stop
         offset="0.125"
         style="stop-color:rgb(76, 56, 106);stop-opacity:1"
         id="stop33" />
      <stop
         offset="0.5"
         style="stop-color:rgb(201, 173, 221);stop-opacity:1"
         id="stop35" />
      <stop
         offset="0.875"
         style="stop-color:rgb(76, 56, 106);stop-opacity:1"
         id="stop37" />
      <stop
         offset="1"
         style="stop-color:rgb(76, 56, 106);stop-opacity:1"
         id="stop39" />
    </linearGradient>
    <linearGradient
       id="uncommon"
       x1="0"
       y1="1"
       x2="1"
       y2="0">
      <stop
         offset="0"
         style="stop-color:rgb(98,110,119);stop-opacity:1"
         id="stop42" />
      <stop
         offset="0.125"
         style="stop-color:rgb(98,110,119);stop-opacity:1"
         id="stop44" />
      <stop
         offset="0.5"
         style="stop-color:rgb(196,222,238);stop-opacity:1"
         id="stop46" />
      <stop
         offset="0.875"
         style="stop-color:rgb(98,110,119);stop-opacity:1"
         id="stop48" />
      <stop
         offset="1"
         style="stop-color:rgb(98,110,119);stop-opacity:1"
         id="stop50" />
    </linearGradient>
    <linearGradient
       id="common"
       x1="0"
       y1="1"
       x2="1"
       y2="0">
      <stop
         offset="0"
         style="stop-color:rgb(0,0,0);stop-opacity:1"
         id="stop53" />
    </linearGradient>
    <linearGradient
       id="rarity-outline"
       x1="0"
       y1="1"
       x2="0"
       y2="1">
      <stop
         offset="0"
         style="stop-color:rgb(0,0,0);stop-opacity:1"
         id="stop56" />
    </linearGradient>
  </defs>
  <path
     fill="url(#rarity)"
     d="M 15.306,2.564 C 15.752,1.475 16.658,0.68399999 17.582,0 c -0.169,0.50499999 -0.385,1.018 -0.351,1.564 0.04,0.643 0.239,1.269 0.523,1.845 0.176,0.377 0.394,0.788 0.272,1.217 C 17.777,5.625 16.888,6.25 16.153,6.892 16.009,6.975 15.865,7.056 15.721,7.138 15.66,7.173 15.537,7.243 15.476,7.278 15.839,6.624 15.623,5.868 15.419,5.199 15.13,4.361 14.954,3.41 15.307,2.563 Z m 7.803,0.331 c -1.275,0.411 -2.123,1.486 -3.03,2.401 -0.393,0.42 -0.752,0.871 -1.172,1.262 -0.317,0.316 -0.623,0.642 -0.926,0.969 0.085,-0.021 0.255,-0.063 0.34,-0.085 0.086,-0.035 0.258,-0.105 0.344,-0.139 0.159,-0.068 0.32,-0.136 0.48,-0.201 1.931,-0.783 3.991,-1.354 6.09,-1.306 0.288,-0.278 0.571,-0.561 0.879,-0.817 0.07,-0.005 0.21,-0.018 0.279,-0.024 0.411,-0.009 0.817,0.049 1.221,0.117 C 28.230042,4.5589857 28.748267,4.4215314 30.019,4.348 30.746,4.095 31.266,3.462 32.002,3.217 29.081,2.703 26.045,2.149 23.111,2.896 Z M 3.705,4.687 C 3.416,4.767 3.116,4.791 2.818,4.812 2.401,4.913 1.995,5.057 1.586,5.184 1.185,5.315 0.79399999,5.472 0.40699999,5.641 0.29299999,5.69 0.17799999,5.741 0.063,5.79 L 0,5.818 c 0.099,0.014 0.29399999,0.039 0.39199999,0.053 0.294,0.044 0.595,0.086 0.86800001,0.211 C 1.576,6.245 1.84,6.499 2.174,6.625 2.644,6.62 3.114,6.478 3.583,6.571 4.005,6.676 4.382,6.913 4.805,7.017 5.43,6.706 6.24,6.627 6.753,7.184 7.243,7.51 7.832,7.246 8.37,7.25 c 1.844,-0.077 3.686,0.235 5.462,0.71 0.211,0.052 0.426,0.091 0.641,0.126 C 13.234,7.092 11.961,6.138 10.722,5.143 9.9209996,4.489 8.881,4.212 7.861,4.169 6.46,4.11 5.058,4.334 3.705,4.687 Z m 15.847,2.912 c -0.119,0.049 -0.235,0.101 -0.35,0.157 -0.169,0.083 -0.336,0.171 -0.504,0.254 -0.091,0.044 -0.27,0.133 -0.36,0.177 0.246,0.059 0.5,0.063 0.753,0.063 1.657,-0.077 3.342,0.184 4.867,0.844 0.614,0.2739999 1.298,0.2779999 1.956,0.3229999 0.207,0.318 0.39,0.6520001 0.575,0.9860001 0.408,0.353 0.989,0.313 1.495,0.356 0.006,0.071 0.018,0.212 0.024,0.283 0.209,0.279 0.385,0.584 0.623,0.84 0.5,0.291 1.143,0.284 1.588,0.681 0.433,0.378 0.86,0.763 1.319,1.112 C 31.396,12.622 31.103,11.598 30.809,10.579 30.477,9.5469999 30.123,8.49 29.468,7.612 28.975,6.949 28.116,6.748 27.341,6.645 24.712,6.356 22.063,6.832 19.551,7.598 Z M 15.22,8.054 c -0.008,0.056 -0.024,0.167 -0.032,0.222 0.183,0.455 0.315,0.9259999 0.446,1.3959999 0.028,0.054 0.082,0.163 0.109,0.217 0.625,-0.029 1.251,0.006 1.875,-0.018 C 17.502,9.2489999 17.335,8.638 17.152,8.034 16.673,7.829 16.149,7.795 15.634,7.833 15.495,7.906 15.357,7.98 15.22,8.053 Z M 4.767,8.592 C 4.34,8.768 3.917,8.971 3.564,9.2729999 3.174,9.6359999 2.963,10.144 2.783,10.635 2.23,12.249 2.104,13.962 1.924,15.646 1.921,15.724 1.916,15.881 1.914,15.959 l 0.054,0.107 C 2.126,16.013 2.283,15.957 2.443,15.912 2.571,15.71 2.705,15.511 2.856,15.326 3.027,15.09 3.185,14.843 3.361,14.611 3.655,14.167 4.21,14.056 4.669,13.857 4.75,13.456 4.856,13.061 4.971,12.668 5.129,12.624 5.287,12.581 5.445,12.538 5.787,12.444 6.131,12.352 6.461,12.22 6.685,11.765 6.74,11.025 7.374,10.982 7.882,10.873 8.385,10.737 8.856,10.515 8.914,10.49 9.03,10.437 9.088,10.41 10.426,9.5239999 12.042,9.069 13.638,9.001 13.864,8.954 14.087,8.89 14.31,8.828 12.13,8.058 9.7679996,7.971 7.482,8.138 6.562,8.191 5.664,8.401 4.765,8.593 Z M 18.33,9.03 c 0.171,0.1479999 0.341,0.2969999 0.512,0.4469999 C 20.074,10.498 20.847,11.957 21.43,13.423 c 0.077,0.083 0.166,0.155 0.264,0.216 0.307,0.148 0.662,0.227 0.913,0.467 0.22,0.293 0.317,0.656 0.468,0.986 0.025,0.021 0.075,0.064 0.1,0.086 0.436,0.086 0.878,0.126 1.319,0.182 0.116,0.318 0.225,0.641 0.355,0.954 0.028,0.033 0.082,0.099 0.109,0.131 0.454,0.081 0.953,0.029 1.361,0.28 0.437,0.251 0.848,0.547 1.288,0.795 0.011,-0.035 0.035,-0.105 0.047,-0.139 -0.056,-0.014 -0.166,-0.042 -0.221,-0.056 -0.224,-0.95 -0.596,-1.859 -0.977,-2.756 C 25.857,13.218 25.165,11.884 24.187,10.766 23.391,9.8309999 22.173,9.4179999 21.007,9.1809999 20.157,9.002 19.284,8.998 18.418,8.995 l -0.086,0.033 z m -6.626,1.091 C 11.099,10.35 10.553,10.706 9.9639996,10.973 9.2669996,11.468 8.747,12.164 8.356,12.918 7.351,14.837 6.809,16.964 6.499,19.098 6.495,19.131 6.49,19.199 6.488,19.232 6.515,19.231 6.568,19.228 6.595,19.227 L 6.72,19.159 c 0.264,-0.421 0.594,-0.792 0.927,-1.157 0.412,0.01 0.828,-0.005 1.226,-0.125 0.042,-0.035 0.124,-0.107 0.166,-0.144 0.023,-0.327 0.077,-0.651 0.1449996,-0.972 0.164,-0.043 0.33,-0.086 0.494,-0.131 0.289,-0.085 0.5750004,-0.183 0.8540004,-0.298 0.078,-0.375 0.171,-0.748 0.269,-1.118 0.171,-0.104 0.341,-0.207 0.514,-0.307 0.182,-0.105 0.368,-0.203 0.556,-0.298 0.418,-1.825 1.168,-3.626 2.494,-4.9810001 -0.906,0.048 -1.778,0.31 -2.661,0.4950001 z m 3.966,0.421 c -0.018,0.039 -0.053,0.116 -0.072,0.154 0.03,0.052 0.091,0.154 0.121,0.206 0.494,0.706 0.733,1.548 0.962,2.368 0.672,-0.005 1.346,0.029 2.017,-0.013 -0.043,-0.974 -0.301,-1.958 -0.738,-2.821 -0.764,0.004 -1.524,0.134 -2.29,0.106 z m 0.725,3.346 c 0,0.033 0.003,0.097 0.003,0.13 0.411,0.954 0.566,1.995 0.591,3.026 0.791,0.176 1.563,0.433 2.364,0.566 0.292,-1.212 0.059,-2.477 -0.262,-3.658 -0.882,-0.047 -1.765,-0.073 -2.645,-0.154 l -0.032,0.014 -0.02,0.076 z m 0.035,3.673 c -0.01,0.095 -0.016,0.19 -0.019,0.286 0.078,1.239 0.082,2.519 -0.335,3.706 0.898,0.327 1.816,0.599 2.704,0.951 l 0.006,-0.013 c 0.536,-1.276 0.723,-2.66 0.742,-4.034 -1.017,-0.332 -2.055,-0.601 -3.068,-0.948 -0.008,0.013 -0.023,0.039 -0.03,0.052 z m -1.098,4.602 c -0.038,0.123 -0.071,0.246 -0.104,0.37 -10e-4,0.739 -0.28,1.433 -0.574,2.099 -0.287,0.619 -0.572,1.247 -1.003,1.783 -0.064,0.155 -0.13,0.312 -0.195,0.47 0.027,0.034 0.078,0.102 0.104,0.138 0.884,0.647 1.698,1.384 2.578,2.037 0.107,0.075 0.231,0.176 0.369,0.112 1.274,-1.672 2.293,-3.578 2.665,-5.664 -1.234,-0.5 -2.53,-0.841 -3.741,-1.397 -0.025,0.014 -0.073,0.04 -0.098,0.053 z"
     id="path63"
     style="fill:url(#rarity)" />
</svg>
